<svg xmlns="http://www.w3.org/2000/svg" xmlns:xlink="http://www.w3.org/1999/xlink" style="height: 0; position: absolute">
  <symbol id="codepen" viewBox="0 0 16 16"><path d="M15.988 5.443c-.004-.02-.007-.04-.012-.058l-.01-.033c-.006-.017-.012-.034-.02-.05-.003-.012-.01-.023-.014-.034l-.023-.045-.02-.032-.03-.04-.024-.03c-.01-.013-.022-.026-.034-.038l-.027-.027-.04-.032-.03-.024-.012-.01L8.38.117c-.23-.155-.53-.155-.76 0L.305 4.99.296 5c-.012.007-.022.015-.032.023-.014.01-.027.02-.04.032l-.027.027-.034.037-.024.03-.03.04c-.006.012-.013.022-.02.033l-.023.045-.015.034c-.007.016-.012.033-.018.05l-.01.032c-.005.02-.01.038-.012.058l-.006.03C.002 5.5 0 5.53 0 5.56v4.875c0 .03.002.06.006.09l.007.03c.003.02.006.04.013.058l.01.033c.006.018.01.035.018.05l.015.033c.006.016.014.03.023.047l.02.03c.008.016.018.03.03.042.007.01.014.02.023.03.01.012.02.025.034.036.01.01.018.02.028.026l.04.033.03.023.01.01 7.31 4.876c.116.078.248.117.382.116.134 0 .266-.04.38-.116l7.314-4.875.01-.01c.012-.007.022-.015.032-.023.014-.01.027-.02.04-.032l.027-.027.034-.037.024-.03.03-.04.02-.032.023-.046.015-.033.018-.052.01-.033c.005-.02.01-.038.013-.058 0-.01.003-.02.004-.03.004-.03.006-.06.006-.09V5.564c0-.03-.002-.06-.006-.09l-.007-.03zM8 9.626L5.568 8 8 6.374 10.432 8 8 9.626zM7.312 5.18l-2.98 1.993-2.406-1.61 5.386-3.59v3.206zM3.095 8l-1.72 1.15v-2.3L3.095 8zm1.237.828l2.98 1.993v3.208l-5.386-3.59 2.406-1.61zm4.355 1.993l2.98-1.993 2.407 1.61-5.387 3.59v-3.206zM12.905 8l1.72-1.15v2.3L12.905 8zm-1.237-.827L8.688 5.18V1.97l5.386 3.59-2.406 1.61z" fill-rule="nonzero"/></symbol>
  <symbol id="dribbble" viewBox="0 0 16 16"><path d="M8 16c-4.41 0-8-3.59-8-8s3.59-8 8-8 8 3.59 8 8-3.59 8-8 8zm6.747-6.905c-.234-.074-2.115-.635-4.257-.292.894 2.456 1.258 4.456 1.328 4.872 1.533-1.037 2.624-2.68 2.93-4.58zM10.67 14.3c-.102-.6-.5-2.688-1.46-5.18l-.044.014C5.312 10.477 3.93 13.15 3.806 13.4c1.158.905 2.614 1.444 4.194 1.444.947 0 1.85-.194 2.67-.543zm-7.747-1.72c.155-.266 2.03-3.37 5.555-4.51.09-.03.18-.056.27-.08-.173-.39-.36-.778-.555-1.16C4.78 7.85 1.47 7.807 1.17 7.8l-.003.208c0 1.755.665 3.358 1.756 4.57zM1.31 6.61c.307.005 3.122.017 6.318-.832-1.132-2.012-2.353-3.705-2.533-3.952-1.912.902-3.34 2.664-3.784 4.785zM6.4 1.368c.188.253 1.43 1.943 2.548 4 2.43-.91 3.46-2.293 3.582-2.468C11.323 1.827 9.736 1.176 8 1.176c-.55 0-1.087.066-1.6.19zm6.89 2.322c-.145.194-1.29 1.662-3.816 2.694.16.325.31.656.453.99.05.117.1.235.147.352 2.274-.286 4.533.172 4.758.22-.015-1.613-.59-3.094-1.543-4.257z"/></symbol>
  <symbol id="designernews" viewBox="0 0 16 16"><path d="M7.514 7.988c0-2.555-1.57-4.287-4.56-4.287H0v8.6h3.016c2.903 0 4.498-1.75 4.498-4.31zM5.37 8c0 1.844-.946 2.642-2.467 2.642H2.13V5.358h.773C4.36 5.358 5.37 6.193 5.37 8zM16 12.3V3.7h-1.98v4.81L10.853 3.7h-2.07v8.6h1.982V7.152l3.39 5.146H16z"/></symbol>
  <symbol id="disroot" viewBox="0 0 16 16"><path d="M18.824 6.655q.092.128 0 .255-.093.032-.154 0l-.154-.223-.369-.095q-.092-.096 0-.255.092-.128.246-.096.277.16.43.415zm4.49 4.336q.031.095.031.159l-.154.223v-.35q.062-.032.123-.032zm-5.382-4.75l.153.255q-.123.223-.246.287l-.092.127q-.061-.159-.092-.318-.031 0-.062-.032l-.123.127-.553-.127q-.123-.16.061-.35.185-.192.43-.096l.524.127zm-1.138.67l-.154-.096.123-.064.03.16zm-2.461-1.626l-.184.223-.185-.223-.154-.032.492-.096.031.128zm3.814 12.208zm5.782-7.427q.123.096.031.478l-.184.542-.154.191-.031-.382q0-.128-.03-.223 0-.096-.032-.191l-.4.19q.031.065.031.16.031.096.062.128l-.43.032.03.127.092.096-.153.35q-.031.287-.154.32l-.123-.192-.37.095q-.122-.127-.122-.223l-.093-.127.154-.191q-.061-.128-.123-.128l-.154.064-.153.382q-.216 0-.277.064l.184.255.646.35.031.224q.123.032.185.095.092.064.123.096-.031.064-.062.16-.03.063-.123.127l-.277.191.031.255q-.246.096-.43.319l-.093.35q-.338 0-.43.064l.03.479-.092-.032q-.123-.192-.246-.096l.123.414q-.092 0-.154.032l-.061.064.123.223q.03.128.03.192-.184.159-.369.19-.153.033-.246.224l.031.382q-.092.224-.154.287-.307 0-.461.064l-.185.35-.153-.063q-.124-.032-.185 0l-.123.255q-.277 0-.4.127l-.246.224.062-.287q.092-.255-.093-.287l-.123.095-.03.16-.308.191-.03.35h-.585l-.123.224q-.062.191-.308.287-.246.095-.861.095t-.769.064q-.154 0-.277.16-.092.159-.215.223l-.492.159-.154.287-.215.16q-.154.095-.492.095l-.308.16-.461.19-.339-.031q-.184-.096-.43-.096h-.554l-.185-.128-.369.064-.184.255-.277-.191-.215-.223-.492-.032-.185-.16.277-.35.369-.51v-.35l.43-.479v-.542q0-.255.093-.446l.338.096q.123-.128.123-.192-.184-.159-.338-.414l-.308-.446-.369-.478-.246-.447-.277-.446-.215-.542-.461-.51-1.692-2.486-.308-.542-.307-.606-.246-.159q-.277-.35-.462-.765l-.092-.383-.277-.127-.953.191q-.339 0-.738.128l-.646.255-.77.095-.43.16q-.277.064-.43-.064L1.23 8.6l-.338.128-.277-.096q0-.319-.061-.383l-.277-.382Q.092 7.739 0 7.707l.03-.159h.308q-.03-.095-.03-.223v-.16l.307.128q.154-.095.185-.16l.123-.254.246.032.184-.542-.03-.287.154.095.153.16q.154-.064.185-.128l.277-.35.276.032-.092-.223-.184-.224-.277-.095q.184-.287.8-.415l.984-.095.338-.223.8-.16 1.23-.064.43-.095q.247-.096.493-.032l.492-.032q.492-.127.707-.064l.4.032.554.032.83.16.738.063.523-.223q.185 0 .4.255l.308.223h.646l.215.255-.03.16.184.51.123-.064.277-.319.307.478-.369-.127q-.215 0-.246.318l.308.064.123.16.184-.064q.154-.064.308.064.184.095.246.223l.184.255h.4q0-.096.03-.128.032-.064.062-.095l.062.318h.123l.092-.095.093.16.092-.256q.4 0 .461-.064 0-.095-.061-.159l-.123-.16q0-.159.246-.127l.43.128.308-.032.184.16.062.127q-.277-.064-.37.032-.06.063-.03.223l.215.19q0 .224.216.479l.123-.127.03-.255.124.159h.522q.154 0 .246.35l.093.32.123.095.154-.16.492.16.092-.16.154-.063q.123-.096.154-.16v-.159l-.062-.16.43.128q.124-.127.154-.191-.061-.16-.123-.16l-.307-.063v-.16l.092-.223.092-.191q.154.095.185.16l.154.222.215-.031.215-.032.77.669.215-.032.215.287.185.096q-.093.127 0 .286l.215-.095h.215l.185.319.184.318q.246 0 .37.064l.122.574.339.191.276.096q0 .16-.061.255l.061.319.093.19-.031.224.123-.064q.123-.16.185-.191l.123-.064zM16.18 5.35q.092.095 0 .286-.031.064-.185.096-.092-.096 0-.287.03-.064.185-.095zm6.305 5.928q.092.096 0 .255l-.154.064-.03-.223q0-.095.03-.127.062-.032.154.032zm-1.292-1.561q.061.063.061.318-.123.064-.246.032-.153-.095-.061-.287.061-.16.246-.063zm-8.704-4.24l-.185.35.092-.254.093-.096zm4.244 12.304l-.123-.191.123-.096q.154.032.123.223l-.123.064zm5.137-4.75q-.185-.127-.246-.254l.184.127.062.128zM9.566 18.705l.153-.159.154-.096-.307.255zM22.79 10.45l-.092.19-.03.097-.031-.224.153-.063zm.154 1.562l-.061.286.061-.286zm-2.184-3.507l.093.128-.123.032-.123-.096.153-.064zm-5.505 7.491l-.123.096.123-.096zM14.61 5.253l-.03.16.03-.16zm6.551 3.538l-.061.16.061-.16zm-.123 5.196l.062.095-.093.064.031-.16zm-5.905-8.543l-.062.096.062-.096zm1.66 11.635l-.06.127.06-.127zm-6.92-6.822l-.123.128.123-.128zm-.184 9.149l-.031.16.03-.16zm9.32-12.464l.06.096-.153-.064.092-.032zm-5.014 8.67l-.031.128.03-.127zm7.105-6.47l-.031.127.03-.127zm-.216 1.498l-.061.096.061-.096zm.4 3.952l-.092.064.092-.064zM1.692 6.624l-.031.159.03-.16zm20.607 5.323l-.123.064.123-.064zm-.4-.223l-.184.032.184-.032zm-6.49 6.821l-.03.096.03-.096zm6.214-6.152v-.16.16zm1.507-2.136q-.031.064-.031.128 0-.096.03-.128zm-1.23 3.411zM1.506 6.018l-.03.127.03-.127zm17.84 11.507zm-.339-8.734l-.123.032.123-.032zm-.492-1.912l-.061.095.061-.095zM10.92 5.062l-.092.032.092-.032zm3.076 1.275l-.031.127.03-.127zm-.43-.032l-.062.064.061-.064zM9.595 19.183l-.03.127.03-.127zm11.442-8.67zm0 0zm0 0zm0 0zm0 0zm0 0zm0 0zm0 0zm-5.352 5.323zm7.013-3.539zm-2-1.083l-.06-.064.06.064zm-8.55 2.9zm9.843-1.275zm-9.228-7.012zm-.707.191zm0-.287zm3.968.478zm-2.891-.095l-.062-.064.062.064zm6.49 3.283zm2.89 0zm-4.92 7.81zm4.92-6.918zm-10.98 9.563zm1.507-14.854zm-.184 0zm7.843 3.92zm2.307 1.244q0-.255-.093-.415-.061-.159-.215-.286l-.03.414.215.096q.03.095 0 .159l.123.032zm-2.4-.765l-.06-.064.06.064zm1.23 1.434l-.153-.032-.184-.287.061-.255-.277.192.154.19.03.097-.368.159.246.032q.061.064.123.095.092.032.123.032l.246-.223zm-.614-.574l-.123-.095-.216-.064-.092-.16-.123.128-.092.223.246.096q.184 0 .277.095l.123-.223zM15.84 6.783l-.123-.064-.184-.095q-.123 0-.123.063l.03.192.216.127.184-.223zm3.691 6.79l.062-.383q0-.51-.37-1.084-.307-.574-.8-.924-.4-.383-1.106-.67l-1.23-.541-.462-.287-.677-.255-.707-.223-1.138-.255-.37-.064q-.276 0-.43.064-.123.031-.092.223l.369.733q.277.51.523.701l.277.191v.192l.307.382.03.255q.124.096.185.096.154.095.4.478l.339.414.522.765.462.829.215.637-.061.415.123.191-.123.191q-.093.096 0 .192l.215-.064.369-.16q.154 0 .523-.19l.677-.32.953-.382q.584-.255.83-.51l.123-.319q0-.223.062-.319z" fill-rule="nonzero"/></symbol>
  <symbol id="facebook" viewBox="0 0 16 16"><path d="M15.117 0H.883C.395 0 0 .395 0 .883v14.234c0 .488.395.883.883.883h7.663V9.804H6.46V7.39h2.086V5.607c0-2.066 1.262-3.19 3.106-3.19.883 0 1.642.064 1.863.094v2.16h-1.28c-1 0-1.195.476-1.195 1.176v1.54h2.39l-.31 2.416h-2.08V16h4.077c.488 0 .883-.395.883-.883V.883C16 .395 15.605 0 15.117 0" fill-rule="nonzero"/></symbol>
  <symbol id="flickr" viewBox="0 0 16 16"><path d="M0 8c0 2.05 1.662 3.71 3.71 3.71 2.05 0 3.713-1.66 3.713-3.71S5.76 4.29 3.71 4.29C1.663 4.29 0 5.95 0 8zm8.577 0c0 2.05 1.662 3.71 3.712 3.71C14.337 11.71 16 10.05 16 8s-1.662-3.71-3.71-3.71c-2.05 0-3.713 1.66-3.713 3.71z"/></symbol>
  <symbol id="github" viewBox="0 0 16 16"><path d="M8 0C3.58 0 0 3.582 0 8c0 3.535 2.292 6.533 5.47 7.59.4.075.547-.172.547-.385 0-.19-.007-.693-.01-1.36-2.226.483-2.695-1.073-2.695-1.073-.364-.924-.89-1.17-.89-1.17-.725-.496.056-.486.056-.486.803.056 1.225.824 1.225.824.714 1.223 1.873.87 2.33.665.072-.517.278-.87.507-1.07-1.777-.2-3.644-.888-3.644-3.953 0-.873.31-1.587.823-2.147-.083-.202-.358-1.015.077-2.117 0 0 .672-.215 2.2.82.638-.178 1.323-.266 2.003-.27.68.004 1.364.092 2.003.27 1.527-1.035 2.198-.82 2.198-.82.437 1.102.163 1.915.08 2.117.513.56.823 1.274.823 2.147 0 3.073-1.87 3.75-3.653 3.947.287.246.543.735.543 1.48 0 1.07-.01 1.933-.01 2.195 0 .215.144.463.55.385C13.71 14.53 16 11.534 16 8c0-4.418-3.582-8-8-8"/></symbol>
  <symbol id="google+" viewBox="0 0 16 16"><g><path d="M5.09 7.273v1.745H7.98c-.116.75-.873 2.197-2.887 2.197-1.737 0-3.155-1.44-3.155-3.215S3.353 4.785 5.09 4.785c.99 0 1.652.422 2.03.786l1.382-1.33c-.887-.83-2.037-1.33-3.41-1.33C2.275 2.91 0 5.184 0 8s2.276 5.09 5.09 5.09c2.94 0 4.888-2.065 4.888-4.974 0-.334-.036-.59-.08-.843H5.09zM16 7.273h-1.455V5.818H13.09v1.455h-1.454v1.454h1.455v1.455h1.455V8.727H16"/></g></symbol>
  <symbol id="hackernews" viewBox="0 0 16 16"><path d="M0 0v16h16V0H0zm8.92 8.96v3H7.25v-3l-2.75-5h1.96l1.66 3.48L9.7 3.96h1.88l-2.66 5z"/></symbol>
  <symbol id="instagram" viewBox="0 0 16 16"><path d="M8 0C5.827 0 5.555.01 4.702.048 3.85.088 3.27.222 2.76.42c-.526.204-.973.478-1.417.923-.445.444-.72.89-.923 1.417-.198.51-.333 1.09-.372 1.942C.008 5.555 0 5.827 0 8s.01 2.445.048 3.298c.04.852.174 1.433.372 1.942.204.526.478.973.923 1.417.444.445.89.72 1.417.923.51.198 1.09.333 1.942.372.853.04 1.125.048 3.298.048s2.445-.01 3.298-.048c.852-.04 1.433-.174 1.942-.372.526-.204.973-.478 1.417-.923.445-.444.72-.89.923-1.417.198-.51.333-1.09.372-1.942.04-.853.048-1.125.048-3.298s-.01-2.445-.048-3.298c-.04-.852-.174-1.433-.372-1.942-.204-.526-.478-.973-.923-1.417-.444-.445-.89-.72-1.417-.923-.51-.198-1.09-.333-1.942-.372C10.445.008 10.173 0 8 0zm0 1.44c2.136 0 2.39.01 3.233.048.78.036 1.203.166 1.485.276.374.145.64.318.92.598.28.28.453.546.598.92.11.282.24.705.276 1.485.038.844.047 1.097.047 3.233s-.01 2.39-.048 3.233c-.036.78-.166 1.203-.276 1.485-.145.374-.318.64-.598.92-.28.28-.546.453-.92.598-.282.11-.705.24-1.485.276-.844.038-1.097.047-3.233.047s-2.39-.01-3.233-.048c-.78-.036-1.203-.166-1.485-.276-.374-.145-.64-.318-.92-.598-.28-.28-.453-.546-.598-.92-.11-.282-.24-.705-.276-1.485C1.45 10.39 1.44 10.136 1.44 8s.01-2.39.048-3.233c.036-.78.166-1.203.276-1.485.145-.374.318-.64.598-.92.28-.28.546-.453.92-.598.282-.11.705-.24 1.485-.276C5.61 1.45 5.864 1.44 8 1.44zm0 2.452c-2.27 0-4.108 1.84-4.108 4.108 0 2.27 1.84 4.108 4.108 4.108 2.27 0 4.108-1.84 4.108-4.108 0-2.27-1.84-4.108-4.108-4.108zm0 6.775c-1.473 0-2.667-1.194-2.667-2.667 0-1.473 1.194-2.667 2.667-2.667 1.473 0 2.667 1.194 2.667 2.667 0 1.473-1.194 2.667-2.667 2.667zm5.23-6.937c0 .53-.43.96-.96.96s-.96-.43-.96-.96.43-.96.96-.96.96.43.96.96z"/></symbol>
  <symbol id="linkedin" viewBox="0 0 16 16"><path d="M13.632 13.635h-2.37V9.922c0-.886-.018-2.025-1.234-2.025-1.235 0-1.424.964-1.424 1.96v3.778h-2.37V6H8.51V7.04h.03c.318-.6 1.092-1.233 2.247-1.233 2.4 0 2.845 1.58 2.845 3.637v4.188zM3.558 4.955c-.762 0-1.376-.617-1.376-1.377 0-.758.614-1.375 1.376-1.375.76 0 1.376.617 1.376 1.375 0 .76-.617 1.377-1.376 1.377zm1.188 8.68H2.37V6h2.376v7.635zM14.816 0H1.18C.528 0 0 .516 0 1.153v13.694C0 15.484.528 16 1.18 16h13.635c.652 0 1.185-.516 1.185-1.153V1.153C16 .516 15.467 0 14.815 0z" fill-rule="nonzero"/></symbol>
  <symbol id="medium" viewBox="0 0 16 16"><path d="M11.824 12.628l-.276.45.798.398 2.744 1.372c.15.076.294.11.418.11.278 0 .467-.177.467-.492V5.883l-4.15 6.745zm4.096-8.67c-.004-.003 0-.01-.003-.012l-4.825-2.412c-.06-.03-.123-.038-.187-.044-.016 0-.03-.01-.047-.01-.184 0-.368.092-.467.254l-.24.39-.5.814-1.89 3.08 1.89 3.076.5.813.5.812.59.95 4.71-7.64c.02-.03.01-.06-.02-.08zm-6.27 7.045L7.17 6.97l-.295-.477-.294-.477-.25-.416v4.867l3.32 1.663.5.25.5.25-.5-.813-.5-.813zM.737 1.68L.59 1.608c-.085-.042-.166-.062-.24-.062-.206 0-.35.16-.35.427v10.162c0 .272.2.594.442.716l4.145 2.08c.107.06.208.08.3.08.257 0 .438-.2.438-.53V4.01c0-.02-.012-.04-.03-.047L.738 1.68z"/></symbol>
  <symbol id="pinterest" viewBox="0 0 16 16"><path d="M8 0C3.582 0 0 3.582 0 8c0 3.39 2.108 6.285 5.084 7.45-.07-.633-.133-1.604.028-2.295.146-.625.938-3.977.938-3.977s-.24-.48-.24-1.188c0-1.11.646-1.943 1.448-1.943.683 0 1.012.513 1.012 1.127 0 .687-.436 1.713-.662 2.664-.19.797.4 1.445 1.185 1.445 1.42 0 2.514-1.498 2.514-3.662 0-1.915-1.376-3.254-3.342-3.254-2.276 0-3.61 1.707-3.61 3.472 0 .687.263 1.424.593 1.825.066.08.075.15.057.23-.06.252-.196.796-.223.907-.035.146-.115.178-.268.107-.998-.465-1.624-1.926-1.624-3.1 0-2.524 1.834-4.84 5.287-4.84 2.774 0 4.932 1.977 4.932 4.62 0 2.757-1.74 4.977-4.153 4.977-.81 0-1.572-.422-1.833-.92l-.5 1.902c-.18.695-.667 1.566-.994 2.097.75.232 1.545.357 2.37.357 4.417 0 8-3.582 8-8s-3.583-8-8-8z" fill-rule="nonzero"/></symbol>
  <symbol id="rss" viewBox="0 0 16 16"><path d="M12.8 16C12.8 8.978 7.022 3.2 0 3.2V0c8.777 0 16 7.223 16 16h-3.2zM2.194 11.61c1.21 0 2.195.985 2.195 2.196 0 1.21-.985 2.194-2.196 2.194C.984 16 0 15.017 0 13.806c0-1.21.983-2.195 2.194-2.195zM10.606 16h-3.11c0-4.113-3.383-7.497-7.496-7.497v-3.11c5.818 0 10.606 4.79 10.606 10.607z"/></symbol>
  <symbol id="reddit" viewBox="0 0 16 16"><path d="M1.473 9.368c-.04.185-.06.374-.06.566 0 2.3 2.94 4.173 6.554 4.173 3.613 0 6.553-1.872 6.553-4.173 0-.183-.02-.364-.055-.54l-.01-.022c-.013-.036-.02-.073-.02-.11-.2-.784-.745-1.497-1.533-2.072-.03-.01-.058-.026-.084-.047-.017-.013-.03-.028-.044-.043-1.198-.824-2.91-1.34-4.807-1.34-1.88 0-3.576.506-4.772 1.315-.01.012-.02.023-.033.033-.026.022-.056.04-.087.05-.805.576-1.364 1.293-1.572 2.086 0 .038-.01.077-.025.114l-.005.01zM8 13.003c-1.198 0-2.042-.26-2.58-.8-.116-.116-.116-.305 0-.422.117-.11.307-.11.424 0 .42.42 1.125.63 2.155.63 1.03 0 1.73-.2 2.15-.62.11-.11.3-.11.42 0 .11.12.11.31 0 .43-.54.54-1.38.8-2.58.8zM5.592 7.945c-.61 0-1.12.51-1.12 1.12 0 .608.51 1.102 1.12 1.102.61 0 1.103-.494 1.103-1.102 0-.61-.494-1.12-1.103-1.12zm4.83 0c-.61 0-1.12.51-1.12 1.12 0 .608.51 1.102 1.12 1.102.61 0 1.103-.494 1.103-1.102 0-.61-.494-1.12-1.103-1.12zM13.46 6.88c.693.556 1.202 1.216 1.462 1.94.3-.225.48-.578.48-.968 0-.67-.545-1.214-1.214-1.214-.267 0-.52.087-.728.243zM1.812 6.64c-.67 0-1.214.545-1.214 1.214 0 .363.16.7.43.927.268-.72.782-1.37 1.478-1.92-.202-.14-.443-.22-.694-.22zm6.155 8.067c-3.944 0-7.152-2.14-7.152-4.77 0-.183.016-.363.046-.54-.53-.33-.86-.91-.86-1.545 0-1 .82-1.812 1.82-1.812.45 0 .87.164 1.2.455 1.24-.796 2.91-1.297 4.75-1.33l1.21-3.69.27.063s.01 0 .01.002l2.82.663c.23-.533.76-.908 1.38-.908.82 0 1.49.67 1.49 1.492 0 .823-.67 1.492-1.49 1.492s-1.49-.67-1.49-1.49L9.4 2.18l-.98 2.99c1.77.07 3.37.57 4.57 1.35.33-.31.764-.48 1.225-.48 1 0 1.814.81 1.814 1.81 0 .66-.36 1.26-.92 1.58.02.17.04.33.04.5-.01 2.63-3.21 4.77-7.16 4.77zM13.43 1.893c-.494 0-.895.4-.895.894 0 .493.4.894.894.894.49 0 .89-.4.89-.89s-.4-.89-.9-.89z"/></symbol>
  <symbol id="skype" viewBox="0 0 16 16"><path d="M8.035 12.6c-2.685 0-3.885-1.322-3.885-2.313 0-.51.374-.865.89-.865 1.15 0 .85 1.653 2.995 1.653 1.096 0 1.703-.597 1.703-1.208 0-.368-.18-.775-.904-.954l-2.387-.597C4.524 7.833 4.175 6.79 4.175 5.812c0-2.034 1.91-2.798 3.704-2.798 1.65 0 3.6.916 3.6 2.136 0 .523-.452.827-.97.827-.98 0-.798-1.36-2.773-1.36-.98 0-1.523.444-1.523 1.08 0 .636.774.84 1.446.993l1.767.392c1.936.433 2.427 1.566 2.427 2.633 0 1.652-1.266 2.886-3.82 2.886m7.4-3.264l-.014.084-.028-.16c.015.024.028.05.042.076.082-.45.125-.912.125-1.373 0-1.023-.2-2.014-.595-2.948-.38-.902-.925-1.712-1.62-2.407-.692-.696-1.5-1.242-2.4-1.623C10.015.59 9.025.39 8.005.39c-.48 0-.963.045-1.43.135H6.57l.08.04-.16-.023.08-.016C5.927.183 5.205 0 4.472 0 3.278 0 2.155.466 1.31 1.313.465 2.16 0 3.286 0 4.483c0 .763.195 1.512.563 2.175l.013-.083.028.16c-.015-.026-.027-.052-.04-.077-.076.43-.115.867-.115 1.305 0 1.022.2 2.014.593 2.948.38.903.925 1.713 1.62 2.408.693.695 1.5 1.242 2.4 1.623.932.397 1.92.597 2.94.597.445 0 .89-.04 1.325-.118l-.077-.043.162.028-.084.014c.67.378 1.426.58 2.2.58 1.194 0 2.317-.466 3.162-1.313.845-.846 1.31-1.972 1.31-3.17 0-.765-.197-1.517-.566-2.18" fill-rule="nonzero"/></symbol>
  <symbol id="tumblr" viewBox="0 0 16 16"><path d="M9.708 16c-3.396 0-4.687-2.504-4.687-4.274V6.498H3.403V4.432C5.83 3.557 6.412 1.368 6.55.12c.01-.086.077-.12.115-.12H9.01v4.076h3.2v2.422H8.997v4.98c.01.667.25 1.58 1.472 1.58h.067c.424-.012.994-.136 1.29-.278l.77 2.283c-.288.424-1.594.916-2.77.936h-.12z" fill-rule="nonzero"/></symbol>
  <symbol id="twitch" viewBox="0 0 16 16"><g fill-rule="nonzero"><path d="M1.393 0L.35 2.783v11.13h3.824V16h2.088l2.085-2.088h3.13L15.65 9.74V0H1.394zm1.39 1.39H14.26v7.653l-2.435 2.435H8l-2.085 2.085v-2.085H2.783V1.39z"/><path d="M6.61 8.348H8V4.175H6.61v4.173zm3.824 0h1.39V4.175h-1.39v4.173z"/></g></symbol>
  <symbol id="twitter" viewBox="0 0 16 16"><path d="M16 3.038c-.59.26-1.22.437-1.885.517.677-.407 1.198-1.05 1.443-1.816-.634.375-1.337.648-2.085.795-.598-.638-1.45-1.036-2.396-1.036-1.812 0-3.282 1.468-3.282 3.28 0 .258.03.51.085.75C5.152 5.39 2.733 4.084 1.114 2.1.83 2.583.67 3.147.67 3.75c0 1.14.58 2.143 1.46 2.732-.538-.017-1.045-.165-1.487-.41v.04c0 1.59 1.13 2.918 2.633 3.22-.276.074-.566.114-.865.114-.21 0-.416-.02-.617-.058.418 1.304 1.63 2.253 3.067 2.28-1.124.88-2.54 1.404-4.077 1.404-.265 0-.526-.015-.783-.045 1.453.93 3.178 1.474 5.032 1.474 6.038 0 9.34-5 9.34-9.338 0-.143-.004-.284-.01-.425.64-.463 1.198-1.04 1.638-1.7z" fill-rule="nonzero"/></symbol>
  <symbol id="vimeo" viewBox="0 0 16 16"><path d="M15.992 4.275c-.07 1.56-1.16 3.697-3.263 6.41-2.176 2.832-4.017 4.248-5.522 4.248-.933 0-1.722-.862-2.367-2.588L3.55 7.6c-.48-1.724-.993-2.587-1.542-2.587-.12 0-.538.252-1.255.755L0 4.796C.79 4.1 1.568 3.406 2.335 2.71c1.053-.912 1.844-1.39 2.37-1.44 1.246-.12 2.012.733 2.3 2.56.31 1.97.526 3.194.647 3.673.36 1.634.754 2.45 1.185 2.45.335 0 .838-.53 1.51-1.59.67-1.06 1.028-1.866 1.076-2.42.096-.915-.263-1.374-1.077-1.374-.383 0-.778.087-1.185.262.788-2.58 2.29-3.834 4.508-3.762 1.644.048 2.42 1.116 2.324 3.205z" fill-rule="nonzero"/></symbol>
  <symbol id="youtube" viewBox="0 0 16 16"><path d="M0 7.345c0-1.294.16-2.59.16-2.59s.156-1.1.636-1.587c.608-.637 1.408-.617 1.764-.684C3.84 2.36 8 2.324 8 2.324s3.362.004 5.6.166c.314.038.996.04 1.604.678.48.486.636 1.588.636 1.588S16 6.05 16 7.346v1.258c0 1.296-.16 2.59-.16 2.59s-.156 1.102-.636 1.588c-.608.638-1.29.64-1.604.678-2.238.162-5.6.166-5.6.166s-4.16-.037-5.44-.16c-.356-.067-1.156-.047-1.764-.684-.48-.487-.636-1.587-.636-1.587S0 9.9 0 8.605v-1.26zm6.348 2.73V5.58l4.323 2.255-4.32 2.24h-.002z"/></symbol>
  <symbol id="link" viewBox="0 0 16 16"><path d="M5.86 12.7l-.81.8c-.7.7-1.84.7-2.54 0a1.75 1.75 0 0 1 0-2.5l2.98-2.96c.61-.61 1.77-1.52 2.62-.68a1 1 0 1 0 1.4-1.4c-1.44-1.43-3.57-1.17-5.42.67L1.1 9.6a3.72 3.72 0 0 0 0 5.32 3.78 3.78 0 0 0 5.34 0l.8-.8a1 1 0 1 0-1.39-1.42zm9.03-11.5c-1.55-1.53-3.7-1.6-5.14-.19l-1 1a1 1 0 1 0 1.39 1.41l1-1c.75-.74 1.72-.43 2.35.2a1.75 1.75 0 0 1 0 2.5l-3.17 3.15c-1.46 1.45-2.14.77-2.43.48a1 1 0 0 0-1.4 1.4c.67.67 1.43 1 2.23 1 .98 0 2.01-.5 3-1.47l3.17-3.15a3.72 3.72 0 0 0 0-5.32z"/></symbol>
  <symbol id="email" viewBox="0 0 16 11"><path fill-rule="evenodd" d="M1.33 0h13.34L8 5 1.33 0zM16 0v11H0V0l8 6 8-6z"/></symbol>
  <symbol id="nav" viewBox="0 0 16 11"><path d="M0 12h16v-2H0v2zm0-5h16V5H0v2zm0-7v2h16V0H0z"/></symbol>
</svg>
