<svg xmlns="http://www.w3.org/2000/svg" width="64" height="64"><path d="M23.257705 16.3576597l-.213962 1.190822-.620743.302899-.05941.638604-.380902 1.046115 2.512498-.976496 7.78244 1.626399-.06889.740664-.379809.480047-3.741592.346639 2.283957 4.102812-.150174 1.608903-.338621 1.146717-3.285238-3.030088 2.251152 2.93386-.169493 1.819584-1.326051.958271-3.288518-2.856587.50629-.04301-1.274656-1.252057-.0452.485149-.521963-.615276 1.110631 1.764909.118463.526338.530711-.02807 2.411168 5.222191-.0667 1.964291-1.016591 1.3738-.515403-.279936-2.531817-4.756724.444325 2.282499 1.359585 4.06782.04811.313834-.497908-.04666-.07144.766179-.38309-.03572-2.92329-4.29053-.66011-7.016625.225626 6.705342 1.974132 4.936788-4.14801-.847098-2.094052-7.381854 2.227459 8.437447-.09368 2.251516-.746861-.06962-.676512 1.038096-1.206495-.112266-1.539283-10.22787.363406 10.407933-1.439046 1.138334-.482962-.04483-.05176.555498-.306545-.02843-.229999-.852201.585751-11.054556-1.237477 6.646658-.03937.421362-.230364 4.963032.248589 1.066527-.617828.406053-1.985067-3.160215.460728-.381996-.2183355-2.222721.4712985-5.056709-.5186835-.241663 2.0262555-7.229858 2.094053-5.059989-.948065.220887.665213-1.328967 10.640119-6.376198z"/><path d="M30.271123 22.0527947v1.3851l.8080965 1.4233725 1.0770975.7694595v.4618215l.538731 1.6544655 1.692738 2.000376.192456.192456h.538731v-1.346463l1.0770975.461457 1.4620095.885006h.577368l.730458.5770035.8080965.192456.500094.4231845.5770035.69255.384912.500094.1410615.449064-.2948805.3459105s-.166941.2052135-.1541835.32076c.013122.1155465 0 .2438505.205578.256608.204849.0127575.3590325-.1410615.4873365-.1541835.1279395-.0127575.025515-.115182.1279395-.0127575.102789.102789.410427.4618215.410427.4618215l.205578.461457v1.051947l-.5901255 1.000188-.3590325-.7439445-.3845475-.461457-.0769095.5383665-.616005-.282123-.3590325-.2307285-.4618215.0513945-.333153.05103.128304-.307638s-4.052511.2052135-4.001481.1024245c.0513945-.1024245.6929145-.6666705.6929145-.6666705l-2.052135.179334-2.667411.4618215-.538731.153819 1.4620095-1.3337055-1.7441325.4618215-1.2054015-.231093v1.3081905l-.153819 4.052511 2.1028005 2.0007405 1.5647985-2.052135.7694595.7184295.487701 1.7951625.384183 2.0262555.205578 1.1798865.9487935.64152.1665765-1.102977.6032475.025515.179334-.974673 1.0515825-1.4875245-.0769095-1.641708s1.4875245 1.3851 1.461645 1.3081905c-.025515-.0769095.7184295-.974673.7184295-.974673l1.0515825.0258795.410427-.69255.871884-.3080025 2.6932905-2.82123.128304.2307285 1.821042-1.538919-.4363065-.7439445.2052135-.7694595-.538731-.307638.0258795-1.1798865 2.3594085-.461457.359397-1.0005525-.820854-1.6413435.410427-.589761-1.359585-1.616193.077274-.589761s2.7702 2.4621975 2.7702 2.3594085c0-.1024245.769095-1.0770975.769095-1.0770975l1.667223 1.0260675 2.180439-2.8726245-3.3858405-2.924019 3.052323 1.4875245.6666705-.718065 1.641708.6666705 3.231657-3.0774735-.1541835-1.1798865-10.0540035-3.052323 7.8742935.128304 2.615652.333153-.3072735-1.7696475-.205578-1.43613-.6921855-.6156405-.7184295-.2307285-1.000188-.7439445s-6.130161-.410427-5.9249475-.461457c.2052135-.051759 8.5668435-.820854 8.5668435-.820854l.2817585-.795339.8722485-.589761-1.6158285-.435942-4.5398475-.538731s-4.9247595.564246-4.821606.4873365c.1024245-.0769095 2.743956-2.6160165 2.743956-2.6160165s.7694595-.8977635.795339-1.077462c.025515-.1796985.0769095-.5901255.0769095-.5901255l.5901255-.589761-.4363065-.410427-.102789-.461457-.589761-.974673-.6921855-.2052135-.769824 1.0770975s-1.231281.7439445-1.3081905.7439445c-.076545 0-1.3337055.1024245-1.3337055.1024245l-9.438363 5.5145205-.0769095.5128515-2.641896 1.821042 2.1290445-2.461833s-.051759-.513216.025515-.5901255c.0769095-.0769095.8977635-1.128492.8977635-1.128492v-.846369l-.9750375.974673-7.4893815 5.745249.1024245.8204895-.8977635 2.924019s-.1534545 1.1543715-.1534545 1.256796c0 .102789 2.103165.1796985 2.103165.1796985l.9232785.2052135.128304.6666705-.4873365.949158-1.320948.307638-1.231281-.0127575zM21.305988 41.1354637l-.346275 4.5588015-2.423925 10.6758405-2.5387425 1.154007-.923643-.6345945-.9808695 2.7122445-2.481516.5770035-2.71188-1.096416-1.327509 1.096416s-1.5560505.5303475-1.7098695.5303475c-.1541835 0-.69255-1.000188-.69255-1.000188l-.7439445-.0258795s.2307285-.410427 0-.435942c-.2307285-.0258795-.7694595-.153819-.7694595-.153819l-.3335175-.282123 4.6936665-5.386581s-2.410803 2.2828635-2.5132275 2.2828635c-.102789 0-.949158.025515-.949158.025515l-.667035-2.7698355 4.1294205-2.2828635-2.4366825.8722485-1.640979-.0513945-.026244-1.4620095 1.026432-1.4875245s3.206142-.128304 3.3595965-.231093c.153819-.1024245 1.923831-.74358 1.923831-.74358s.9487935 1.282311.9487935 1.3851c0 .1024245.256608-.820854.256608-.820854l1.0260675-.0258795.025515-1.3592205 2.7702-2.0517705 2.4621975-.102789 1.231281-1.2564315.1024245-2.209599h2.2609935zM22.486715 41.2572057l.236925.527067h.118827v1.0012815l.3553875.527067v.290142l-.5267025.078732-.448335 3.2808645.131949.513945.487701.1053405.421362-.500823v.500823h.303264s-.0397305.6717735 0 .6848955c.039366.0134865.1315845 0 .1315845 0v.500823l.2504115-.223803.8693325-.013122.2766555.395118.843453-.2897775.2635335-.0266085s-.1447065.171315-.0922185.145071c.0528525-.026244.2110455.039366.2110455.039366v.540189l-.2897775.5799195-.1323135.711504.092583.2897775s-.0397305.2504115.0659745.2635335c.1053405.013122.184437.1053405.184437.1053405h.5135805s-.0659745-.078732 0-.0922185c.0659745-.013122.1848015-.158193.1848015-.158193l-.290142-.013122-.158193-.1053405-.1184625-.171315v-.223803l.0790965-.2110455s.1578285-.236925.197559-.223803c.039366.013122.052488.06561.290142.052488.236925-.013122.3028995-.039366.3028995-.039366s-.0528525-.0922185 0-.184437l.052488-.0922185s.184437-.0659745.2241675-.0266085c.039366.0397305.197559.0528525.197559.0528525l.118827.210681.1184625.474579v.527067l.236925-.34263s.1053405-.171315.131949-.2110455c.026244-.039366.06561-.197559.06561-.236925v-.368874l-.1315845-.4086045s.4086045.0266085.448335.0397305c.039366.013122.250047.223803.250047.223803s.145071-.0659745.236925 0c.0922185.0659745.197559.2766555.197559.2766555s.0659745.316386.0659745.355752v.4348485l.2110455-.355752.145071-.2897775v-.724626l-.3298725-.6324075-.645165-.474579-.474579-.1578285-.3422655.052488-.474579-.355752-.7381125-.513945-.40824-.698382-.1184625.0397305s-.7906005-.4610925-.8037225-.500823c-.013122-.039366-.0922185-.1709505-.0922185-.276291 0-.105705.0659745-.1585575.1184625-.1585575.0528525 0 .5143095.105705.5143095.105705v-.540189l-.1191915-.2897775s-.078732-.830331-.078732-.9881595c0-.158193-.118827-.2504115-.118827-.2504115l-.1315845.1184625.039366-.553311.145071.1578285.013122-1.725543.250776.3291435.1840725-.223803.197559-.0790965-.1315845 1.976319-.1184625.368874.1315845.6455295.4873365.197559.013122.4217265.3954825.3954825-.052488 1.3832775.5791905.0790965.237654.236925.368874-.013122.1053405-.4873365.2766555.2766555 1.1201085-.2241675.078732-.527067.303264.1716795.1315845.6586515.5667975-.4086045v1.041012l.1840725.6455295.3692385.303264.8168445.276291s.566433.105705.6586515.118827c.0922185.013122-.40824-.381996-.40824-.381996l-.513945-.7774785s-.0528525-.672138-.0528525-.711504c0-.0397305.2372895-.527067.316386-.540189.0790965-.013122.592677-.210681.592677-.210681l.487701.197559.3291435.223803.105705.158193v-.381996l-.2635335-.27702-.381996-.1709505h-.1848015l.6192855-.0922185s.2372895.263169.2766555.2766555c.0397305.013122.131949.3160215.131949.3160215l.131949.3954825.1053405-.5799195s.1053405.0397305.1053405-.013122v-.197559c0-.0397305-.171315-.4086045-.171315-.4086045l-.1053405-.2897775-.355752-.1053405-.513945-.145071-.8430885-.026244-.540189-.4873365-.2110455-.540189-.513945.1447065-.395118-.210681-.223803.210681-.1716795.2241675-.078732-.368874-.329508.184437-.3823605.013122s-.026244-.3028995-.06561-.2897775c-.0397305.013122-.592677-.158193-.592677-.158193l.1053405-.6061635-.500823.039366-.34263-.5267025.0790965-.4348485.1053405-1.041012-.1578285-.5930415-.435213.2504115v-1.0144035l-1.2382065-1.3439115-.2241675.1184625-.368874-.013122-.1053405.4348485-.2766555-.0922185-.210681.368874-.500823-.0659745.039366.4086045-1.1857185 1.080378-1.119744-.0659745z"/></svg>
