<svg xmlns="http://www.w3.org/2000/svg" width="450" height="450"><defs><clipPath id="a"><path d="M0 360h360V0H0v360z"/></clipPath><clipPath id="b"><path d="M0 360h360V0H0v360z"/></clipPath></defs><path d="M93.964875 281.8445l-.73375 4.08375-2.12875 1.03875-.20375 2.18875-1.30625 3.58875 8.61625-3.35 26.68875 5.57875-.23625 2.53875-1.3025 1.64625-12.83125 1.19 7.8325 14.06875-.515 5.5175-1.16125 3.93375-11.26625-10.39125 7.72 10.06-.58125 6.24125-4.54625 3.28625-11.27875-9.79625 1.73625-.1475-4.37-4.29375-.155 1.66375-1.79125-2.11 3.80875 6.05125.40625 1.80625 1.82-.09625 8.27 17.90875-.23 6.735-3.48625 4.71125-1.76625-.96-8.68375-16.3125 1.52375 7.8275 4.6625 13.95.165 1.07625-1.7075-.15875-.245 2.62625-1.31375-.12125-10.025-14.715-2.26375-24.0625.77375 22.99625 6.77125 16.93-14.225-2.90625-7.1825-25.315 7.64 28.935-.3225 7.7225-2.56125-.24-2.31875 3.56125-4.13875-.38625-5.27875-35.07375 1.24625 35.69125-4.935 3.90375-1.65625-.15375-.1775 1.905-1.05125-.0975-.7875-2.9225 2.0075-37.90875-4.24375 22.79375-.135 1.44375-.79 17.02125.8525 3.65625-2.11875 1.39375-6.8075-10.8375 1.58-1.31125-.7475-7.6225 1.615-17.34-1.7775-.82875 6.9475-24.795 7.18125-17.35125-3.25.7575 2.28-4.55875 36.48875-21.865z" fill="#d1363c"/><g clip-path="url(#a)" transform="matrix(1.25 0 0 -1.25 0 450)"><path d="M94.4136 118.8994v-3.8l2.217-3.905 2.955-2.11v-1.267l1.478-4.539 4.644-5.488.528-.529h1.477v3.695l2.956-1.267 4.011-2.428h1.583l2.005-1.583 2.217-.527 1.372-1.161 1.583-1.901 1.056-1.372.387-1.231-.809-.95s-.458-.563-.423-.879c.036-.317 0-.669.563-.704.563-.035.986.387 1.337.423.352.035.071.316.352.035.282-.283 1.126-1.267 1.126-1.267l.563-1.266v-2.886l-1.618-2.744-.985 2.041-1.056 1.266-.211-1.477-1.689.773-.985.634-1.267-.141-.914-.141.351.844s-11.117-.562-10.977-.281c.141.281 1.9 1.829 1.9 1.829l-5.629-.492-7.318-1.267-1.478-.421 4.011 3.659-4.785-1.267-3.307.633v-3.589l-.423-11.118 5.77-5.488 4.293 5.63 2.111-1.971 1.337-4.926 1.055-5.558.563-3.238 2.604-1.759.457 3.026 1.654-.071.492 2.674 2.886 4.081-.211 4.504s4.081-3.8 4.01-3.589c-.07.211 1.971 2.674 1.971 2.674l2.885-.07 1.125 1.9 2.393.844 7.389 7.74.351-.633 4.996 4.222-1.196 2.041.563 2.112-1.478.843.071 3.238 6.473 1.266.986 2.744-2.252 4.504 1.126 1.618-3.73 4.433.211 1.619s7.6-6.756 7.6-6.474c0 .282 2.111 2.956 2.111 2.956l4.574-2.815 5.981 7.881-9.288 8.021 8.373-4.081 1.83 1.97 4.503-1.829 8.866 8.444-.422 3.237-27.583 8.374 21.602-.352 7.177-.915-.844 4.856-.563 3.94-1.9 1.689-1.97.633-2.744 2.04s-16.818 1.126-16.255 1.267c.563.141 23.502 2.252 23.502 2.252l.774 2.182 2.393 1.618-4.433 1.196-12.455 1.478s-13.511-1.548-13.229-1.337c.281.211 7.529 7.177 7.529 7.177s2.111 2.463 2.182 2.955c.07.493.211 1.619.211 1.619l1.618 1.619-1.196 1.126-.282 1.266-1.618 2.674-1.9.563-2.111-2.955s-3.378-2.041-3.589-2.041c-.211 0-3.659-.282-3.659-.282l-25.895-15.129-.211-1.407-7.248-4.996 5.841 6.755s-.141 1.407.07 1.619c.211.211 2.463 3.096 2.463 3.096v2.322l-2.674-2.674-20.547-15.762.281-2.252-2.463-8.022s-.421-3.166-.421-3.448c0-.281 5.77-.492 5.77-.492l2.533-.563.351-1.83-1.337-2.603-3.623-.845-3.378.035zM69.8174 66.5469l-.95-12.507-6.649-29.289-6.966-3.166-2.533 1.741-2.692-7.44-6.807-1.584-7.441 3.009-3.641-3.009s-4.27-1.454-4.692-1.454c-.422 0-1.9 2.744-1.9 2.744l-2.041.07s.634 1.126 0 1.197c-.633.07-2.111.421-2.111.421l-.914.775 12.877 14.776s-6.615-6.263-6.896-6.263c-.282 0-2.604-.07-2.604-.07l-1.83 7.6 11.33 6.262-6.685-2.392-4.504.142-.07 4.01 2.815 4.081s8.796.352 9.217.633c.423.282 5.278 2.041 5.278 2.041s2.604-3.518 2.604-3.8c0-.281.703 2.252.703 2.252l2.815.071.071 3.729 7.599 5.629 6.755.282 3.378 3.447.281 6.062h6.203zM73.0566 66.2129l.65-1.446h.326v-2.747l.976-1.446v-.796l-1.446-.216-1.229-9 .361-1.411 1.338-.289 1.156 1.373v-1.373h.832s-.109-1.843 0-1.879c.108-.037.361 0 .361 0v-1.374l.687.615 2.386.036.759-1.085 2.313.796.723.072s-.397-.471-.253-.397c.145.072.579-.11.579-.11v-1.481l-.795-1.591-.362-1.952.253-.795s-.109-.687.181-.723c.289-.036.506-.289.506-.289h1.409s-.18.217 0 .253c.181.036.507.434.507.434l-.796.036-.433.289-.326.47v.615l.217.578s.434.65.542.614c.109-.036.145-.18.796-.144.65.036.831.108.831.108s-.145.253 0 .506l.144.253s.507.181.615.072c.109-.108.542-.144.542-.144l.326-.578.325-1.301v-1.447l.65.94s.29.47.362.579c.072.108.181.542.181.65v1.012l-.361 1.121s1.12-.072 1.229-.108c.108-.036.686-.615.686-.615s.398.18.651 0c.253-.181.542-.759.542-.759s.181-.867.181-.976v-1.193l.578.976.398.795v1.989l-.904 1.734-1.771 1.302-1.301.433-.94-.144-1.302.975-2.024 1.411-1.121 1.916-.325-.109s-2.169 1.265-2.205 1.373c-.036.109-.253.471-.253.76 0 .289.181.434.325.434.145 0 1.411-.29 1.411-.29v1.482l-.326.796s-.217 2.277-.217 2.711c0 .433-.325.686-.325.686l-.362-.325.109 1.519.397-.435.036 4.735.688-.903.505.614.542.217-.361-5.422-.325-1.011.361-1.772 1.338-.542.036-1.157 1.084-1.084-.144-3.796 1.59-.217.651-.65 1.012.036.289 1.337.759-.759 3.073.614.216 1.447.832-.47.361-1.808 1.555 1.121v-2.856l.506-1.771 1.012-.832 2.241-.758s1.554-.289 1.807-.326c.253-.036-1.12 1.048-1.12 1.048l-1.41 2.133s-.144 1.844-.144 1.952c0 .109.65 1.446.867 1.483.217.036 1.627.578 1.627.578l1.337-.542.904-.615.289-.434v1.049l-.723.759-1.048.469h-.506l1.699.253s.65-.722.759-.759c.108-.036.361-.868.361-.868l.362-1.084.289 1.591s.289-.108.289.036v.542c0 .109-.47 1.12-.47 1.12l-.289.796-.976.289-1.41.398-2.313.072-1.482 1.338-.579 1.481-1.409-.397-1.085.578-.614-.578-.47-.614-.217 1.011-.904-.506-1.048-.036s-.072.831-.181.795c-.108-.036-1.626.434-1.626.434l.289 1.663-1.374-.108-.94 1.446.217 1.192.29 2.856-.434 1.627-1.193-.687v2.783l-3.398 3.687-.615-.325-1.012.036-.289-1.193-.759.253-.578-1.012-1.374.181.109-1.121-3.254-2.964-3.072.181z" fill="#d1363c"/><path d="M250.9668 300.7583l-.587-3.267-1.703-.831-.163-1.752-1.045-2.87 6.893 2.679 21.351-4.462-.189-2.032-1.042-1.317-10.265-.951 6.266-11.256-.412-4.414-.929-3.146-9.013 8.313 6.176-8.049-.465-4.992-3.638-2.629-9.022 7.837 1.389.118-3.497 3.435-.124-1.331-1.432 1.688 3.047-4.842.325-1.444 1.456.077 6.615-14.327-.183-5.389-2.789-3.769-1.414.768-6.946 13.05 1.219-6.262 3.73-11.16.132-.861-1.366.128-.196-2.102-1.051.098-8.02 11.771-1.811 19.25.619-18.396 5.416-13.544-11.38 2.324-5.745 20.252 6.111-23.148-.257-6.177-2.049.191-1.856-2.848-3.31.308-4.223 28.06.997-28.554-3.948-3.123-1.325.123-.142-1.524-.841.078-.631 2.338 1.607 30.328-3.395-18.235-.108-1.156-.632-13.616.682-2.926-1.695-1.114-5.446 8.67 1.264 1.048-.599 6.098 1.293 13.873-1.423.663 5.559 19.835 5.745 13.882-2.601-.606 1.825 3.646 29.191 17.493z" fill="#292929"/><path d="M250.9668 300.7583l-.587-3.267-1.703-.831-.163-1.752-1.045-2.87 6.893 2.679 21.351-4.462-.189-2.032-1.042-1.317-10.265-.951 6.266-11.256-.412-4.414-.929-3.146-9.013 8.313 6.176-8.049-.465-4.992-3.638-2.629-9.022 7.837 1.389.118-3.497 3.435-.124-1.331-1.432 1.688 3.047-4.842.325-1.444 1.456.077 6.615-14.327-.183-5.389-2.789-3.769-1.414.768-6.946 13.05 1.219-6.262 3.73-11.16.132-.861-1.366.128-.196-2.102-1.051.098-8.02 11.771-1.811 19.25.619-18.396 5.416-13.544-11.38 2.324-5.745 20.252 6.111-23.148-.257-6.177-2.049.191-1.856-2.848-3.31.308-4.223 28.06.997-28.554-3.948-3.123-1.325.123-.142-1.524-.841.078-.631 2.338 1.607 30.328-3.395-18.235-.108-1.156-.632-13.616.682-2.926-1.695-1.114-5.446 8.67 1.264 1.048-.599 6.098 1.293 13.873-1.423.663 5.559 19.835 5.745 13.882-2.601-.606 1.825 3.646 29.191 17.493z" fill="none" stroke="#292929" stroke-width=".317" stroke-miterlimit="10"/><path d="M270.208 285.1333v-3.8l2.217-3.905 2.955-2.111v-1.267l1.478-4.539 4.644-5.488.528-.528h1.478v3.694l2.955-1.266 4.011-2.428h1.584l2.004-1.583 2.217-.528 1.372-1.161 1.583-1.9 1.056-1.372.387-1.232-.809-.949s-.458-.563-.423-.88c.036-.317 0-.669.564-.704.562-.035.985.387 1.337.423.351.035.07.316.351.035.282-.282 1.126-1.267 1.126-1.267l.564-1.266v-2.886l-1.619-2.744-.985 2.041-1.055 1.266-.211-1.477-1.69.774-.985.633-1.267-.141-.914-.14.352.844s-11.118-.563-10.978-.281c.141.281 1.901 1.829 1.901 1.829l-5.63-.492-7.318-1.267-1.478-.422 4.011 3.659-4.785-1.267-3.307.634v-3.589l-.422-11.118 5.769-5.489 4.293 5.63 2.111-1.971 1.338-4.925 1.054-5.559.564-3.237 2.603-1.76.457 3.026 1.655-.07.492 2.674 2.885 4.081-.211 4.504s4.081-3.8 4.01-3.589c-.07.211 1.971 2.674 1.971 2.674l2.885-.071 1.126 1.9 2.392.845 7.389 7.74.352-.633 4.996 4.222-1.197 2.041.563 2.111-1.478.844.071 3.237 6.473 1.266.986 2.745-2.252 4.503 1.126 1.618-3.73 4.434.212 1.618s7.6-6.755 7.6-6.473c0 .281 2.11 2.955 2.11 2.955l4.574-2.815 5.982 7.881-9.289 8.022 8.374-4.081 1.829 1.97 4.504-1.829 8.866 8.443-.423 3.237-27.583 8.374 21.603-.352 7.176-.914-.843 4.855-.564 3.94-1.899 1.689-1.971.633-2.744 2.041s-16.818 1.126-16.255 1.266c.563.142 23.503 2.252 23.503 2.252l.773 2.182 2.393 1.618-4.433 1.196-12.455 1.478s-13.511-1.548-13.228-1.337c.281.211 7.528 7.177 7.528 7.177s2.111 2.463 2.182 2.956c.07.493.211 1.619.211 1.619l1.619 1.618-1.197 1.126-.282 1.266-1.618 2.674-1.899.563-2.112-2.955s-3.378-2.041-3.589-2.041c-.21 0-3.659-.281-3.659-.281l-25.894-15.129-.211-1.407-7.248-4.996 5.841 6.754s-.142 1.408.07 1.619c.211.211 2.463 3.096 2.463 3.096v2.322l-2.675-2.674-20.547-15.762.281-2.251-2.463-8.022s-.421-3.167-.421-3.448c0-.282 5.77-.493 5.77-.493l2.533-.563.352-1.829-1.337-2.604-3.624-.844-3.378.035z" fill="#292929"/><path d="M270.208 285.1333v-3.8l2.217-3.905 2.955-2.111v-1.267l1.478-4.539 4.644-5.488.528-.528h1.478v3.694l2.955-1.266 4.011-2.428h1.584l2.004-1.583 2.217-.528 1.372-1.161 1.583-1.9 1.056-1.372.387-1.232-.809-.949s-.458-.563-.423-.88c.036-.317 0-.669.564-.704.562-.035.985.387 1.337.423.351.035.07.316.351.035.282-.282 1.126-1.267 1.126-1.267l.564-1.266v-2.886l-1.619-2.744-.985 2.041-1.055 1.266-.211-1.477-1.69.774-.985.633-1.267-.141-.914-.14.352.844s-11.118-.563-10.978-.281c.141.281 1.901 1.829 1.901 1.829l-5.63-.492-7.318-1.267-1.478-.422 4.011 3.659-4.785-1.267-3.307.634v-3.589l-.422-11.118 5.769-5.489 4.293 5.63 2.111-1.971 1.338-4.925 1.054-5.559.564-3.237 2.603-1.76.457 3.026 1.655-.07.492 2.674 2.885 4.081-.211 4.504s4.081-3.8 4.01-3.589c-.07.211 1.971 2.674 1.971 2.674l2.885-.071 1.126 1.9 2.392.845 7.389 7.74.352-.633 4.996 4.222-1.197 2.041.563 2.111-1.478.844.071 3.237 6.473 1.266.986 2.745-2.252 4.503 1.126 1.618-3.73 4.434.212 1.618s7.6-6.755 7.6-6.473c0 .281 2.11 2.955 2.11 2.955l4.574-2.815 5.982 7.881-9.289 8.022 8.374-4.081 1.829 1.97 4.504-1.829 8.866 8.443-.423 3.237-27.583 8.374 21.603-.352 7.176-.914-.843 4.855-.564 3.94-1.899 1.689-1.971.633-2.744 2.041s-16.818 1.126-16.255 1.266c.563.142 23.503 2.252 23.503 2.252l.773 2.182 2.393 1.618-4.433 1.196-12.455 1.478s-13.511-1.548-13.228-1.337c.281.211 7.528 7.177 7.528 7.177s2.111 2.463 2.182 2.956c.07.493.211 1.619.211 1.619l1.619 1.618-1.197 1.126-.282 1.266-1.618 2.674-1.899.563-2.112-2.955s-3.378-2.041-3.589-2.041c-.21 0-3.659-.281-3.659-.281l-25.894-15.129-.211-1.407-7.248-4.996 5.841 6.754s-.142 1.408.07 1.619c.211.211 2.463 3.096 2.463 3.096v2.322l-2.675-2.674-20.547-15.762.281-2.251-2.463-8.022s-.421-3.167-.421-3.448c0-.282 5.77-.493 5.77-.493l2.533-.563.352-1.829-1.337-2.604-3.624-.844-3.378.035z" fill="none" stroke="#292929" stroke-width=".317" stroke-miterlimit="10"/><path d="M245.6123 232.7803l-.95-12.507-6.65-29.289-6.965-3.166-2.534 1.741-2.691-7.441-6.808-1.583-7.44 3.008-3.642-3.008s-4.269-1.455-4.691-1.455c-.423 0-1.9 2.744-1.9 2.744l-2.041.071s.633 1.126 0 1.196c-.633.071-2.111.422-2.111.422l-.915.774 12.877 14.778s-6.614-6.263-6.895-6.263c-.282 0-2.604-.07-2.604-.07l-1.83 7.599 11.329 6.263-6.685-2.393-4.502.141-.072 4.011 2.816 4.081s8.796.352 9.217.634c.422.281 5.278 2.04 5.278 2.04s2.603-3.518 2.603-3.8c0-.281.704 2.252.704 2.252l2.815.071.07 3.729 7.6 5.629 6.755.282 3.378 3.447.281 6.062h6.203z" fill="#292929"/><path d="M245.6123 232.7803l-.95-12.507-6.65-29.289-6.965-3.166-2.534 1.741-2.691-7.441-6.808-1.583-7.44 3.008-3.642-3.008s-4.269-1.455-4.691-1.455c-.423 0-1.9 2.744-1.9 2.744l-2.041.071s.633 1.126 0 1.196c-.633.071-2.111.422-2.111.422l-.915.774 12.877 14.778s-6.614-6.263-6.895-6.263c-.282 0-2.604-.07-2.604-.07l-1.83 7.599 11.329 6.263-6.685-2.393-4.502.141-.072 4.011 2.816 4.081s8.796.352 9.217.634c.422.281 5.278 2.04 5.278 2.04s2.603-3.518 2.603-3.8c0-.281.704 2.252.704 2.252l2.815.071.07 3.729 7.6 5.629 6.755.282 3.378 3.447.281 6.062h6.203z" fill="none" stroke="#292929" stroke-width=".317" stroke-miterlimit="10"/><path d="M248.8516 232.4463l.65-1.446h.326v-2.747l.975-1.446v-.796l-1.445-.216-1.23-9.001.362-1.41 1.338-.289 1.156 1.374v-1.374h.832s-.109-1.843 0-1.879c.108-.037.361 0 .361 0v-1.374l.687.614 2.385.036.759-1.084 2.314.795.723.073s-.397-.47-.253-.398c.145.072.579-.108.579-.108v-1.482l-.795-1.591-.363-1.952.254-.795s-.109-.687.181-.723c.289-.036.506-.289.506-.289h1.409s-.181.216 0 .253c.181.036.507.434.507.434l-.796.036-.434.289-.325.47v.614l.217.579s.433.65.542.614c.108-.036.144-.18.796-.144.65.036.831.108.831.108s-.145.253 0 .506l.144.253s.506.181.615.073c.108-.109.542-.145.542-.145l.326-.578.325-1.302v-1.446l.65.94s.289.47.362.579c.072.108.18.542.18.65v1.012l-.361 1.121s1.121-.073 1.23-.109c.108-.036.686-.614.686-.614s.398.181.65 0c.253-.181.542-.759.542-.759s.181-.868.181-.976v-1.193l.579.976.398.795v1.988l-.905 1.735-1.77 1.302-1.302.433-.939-.144-1.302.976-2.025 1.41-1.12 1.916-.325-.109s-2.169 1.265-2.205 1.374c-.036.108-.253.469-.253.758 0 .29.181.435.325.435.145 0 1.411-.29 1.411-.29v1.482l-.327.795s-.216 2.278-.216 2.711c0 .434-.326.687-.326.687l-.361-.325.108 1.518.398-.433.036 4.734.688-.903.505.614.542.217-.361-5.422-.325-1.012.361-1.771 1.337-.542.036-1.157 1.085-1.085-.144-3.795 1.589-.217.652-.65 1.012.036.289 1.337.759-.759 3.073.615.216 1.446.832-.471.361-1.807 1.555 1.121v-2.856l.505-1.771 1.013-.832 2.241-.758s1.554-.29 1.807-.326c.253-.036-1.12 1.048-1.12 1.048l-1.41 2.133s-.145 1.844-.145 1.952c0 .109.651 1.446.868 1.482.217.036 1.626.578 1.626.578l1.338-.542.903-.614.29-.434v1.048l-.723.76-1.048.469h-.507l1.699.253s.651-.722.759-.759c.109-.036.362-.867.362-.867l.362-1.085.289 1.591s.289-.109.289.036v.542c0 .109-.47 1.121-.47 1.121l-.289.795-.976.289-1.41.398-2.313.072-1.482 1.337-.579 1.482-1.41-.397-1.084.578-.614-.578-.471-.615-.216 1.012-.904-.506-1.049-.036s-.072.831-.18.795c-.109-.036-1.626.434-1.626.434l.289 1.663-1.374-.108-.94 1.445.217 1.193.289 2.856-.433 1.627-1.194-.687v2.783l-3.397 3.687-.615-.325-1.012.036-.289-1.193-.759.253-.578-1.012-1.374.181.108-1.121-3.253-2.964-3.072.181z" fill="#292929"/><path d="M248.8516 232.4463l.65-1.446h.326v-2.747l.975-1.446v-.796l-1.445-.216-1.23-9.001.362-1.41 1.338-.289 1.156 1.374v-1.374h.832s-.109-1.843 0-1.879c.108-.037.361 0 .361 0v-1.374l.687.614 2.385.036.759-1.084 2.314.795.723.073s-.397-.47-.253-.398c.145.072.579-.108.579-.108v-1.482l-.795-1.591-.363-1.952.254-.795s-.109-.687.181-.723c.289-.036.506-.289.506-.289h1.409s-.181.216 0 .253c.181.036.507.434.507.434l-.796.036-.434.289-.325.47v.614l.217.579s.433.65.542.614c.108-.036.144-.18.796-.144.65.036.831.108.831.108s-.145.253 0 .506l.144.253s.506.181.615.073c.108-.109.542-.145.542-.145l.326-.578.325-1.302v-1.446l.65.94s.289.47.362.579c.072.108.18.542.18.65v1.012l-.361 1.121s1.121-.073 1.23-.109c.108-.036.686-.614.686-.614s.398.181.65 0c.253-.181.542-.759.542-.759s.181-.868.181-.976v-1.193l.579.976.398.795v1.988l-.905 1.735-1.77 1.302-1.302.433-.939-.144-1.302.976-2.025 1.41-1.12 1.916-.325-.109s-2.169 1.265-2.205 1.374c-.036.108-.253.469-.253.758 0 .29.181.435.325.435.145 0 1.411-.29 1.411-.29v1.482l-.327.795s-.216 2.278-.216 2.711c0 .434-.326.687-.326.687l-.361-.325.108 1.518.398-.433.036 4.734.688-.903.505.614.542.217-.361-5.422-.325-1.012.361-1.771 1.337-.542.036-1.157 1.085-1.085-.144-3.795 1.589-.217.652-.65 1.012.036.289 1.337.759-.759 3.073.615.216 1.446.832-.471.361-1.807 1.555 1.121v-2.856l.505-1.771 1.013-.832 2.241-.758s1.554-.29 1.807-.326c.253-.036-1.12 1.048-1.12 1.048l-1.41 2.133s-.145 1.844-.145 1.952c0 .109.651 1.446.868 1.482.217.036 1.626.578 1.626.578l1.338-.542.903-.614.29-.434v1.048l-.723.76-1.048.469h-.507l1.699.253s.651-.722.759-.759c.109-.036.362-.867.362-.867l.362-1.085.289 1.591s.289-.109.289.036v.542c0 .109-.47 1.121-.47 1.121l-.289.795-.976.289-1.41.398-2.313.072-1.482 1.337-.579 1.482-1.41-.397-1.084.578-.614-.578-.471-.615-.216 1.012-.904-.506-1.049-.036s-.072.831-.18.795c-.109-.036-1.626.434-1.626.434l.289 1.663-1.374-.108-.94 1.445.217 1.193.289 2.856-.433 1.627-1.194-.687v2.783l-3.397 3.687-.615-.325-1.012.036-.289-1.193-.759.253-.578-1.012-1.374.181.108-1.121-3.253-2.964-3.072.181z" fill="none" stroke="#292929" stroke-width=".217" stroke-miterlimit="10"/><path d="M114.3774 268.5337l14-2.25 8.25-5.5 3.75-9-1.5-9.25s-5.25-2.75-6.25-2.75-11.5 1.25-11.5 1.25l-8 1.75-7-1.75-7.25-1.75-1.25-2.5-1.5 1.75.521-5.959-4.021-1.791s-5.5-3-6.25-3.25-6.616 2.341-6.616 2.341l-3.134-2.591-2.785 3.118-2.49 4.12 11.38-2.324-5.417 13.543-.618 18.397 1.811-19.25 8.019-11.772.735.059-.129 1.328.641.617 1.367-.128-3.863 12.021-1.219 6.262 6.947-13.05 1.413-.768 2.789 3.769.184 5.389-4.202 6.669 2.5 1.5-5.313 4.375 12.937-.562-2.02 4.937 7.333-.833-.5 2.833 7.667-2.5.583 3.5z" fill="none" stroke="#292929" stroke-width=".5" stroke-miterlimit="10"/><path d="M85.3994 298.3799l-.587-3.267-1.703-.831-.163-1.752-1.045-2.87 6.893 2.679 21.351-4.462-.189-2.032-1.041-1.317-10.266-.951 6.266-11.256-.411-4.414-.929-3.146-9.014 8.313 6.176-8.049-.465-4.992-3.637-2.629-9.023 7.837 1.39.118-3.497 3.435-.124-1.331-1.433 1.688 3.047-4.842.325-1.444 1.456.077 6.616-14.327-.184-5.389-2.789-3.769-1.413.768-6.947 13.05 1.219-6.262 3.731-11.16.132-.861-1.367.128-.195-2.102-1.052.098-8.019 11.771-1.811 19.25.618-18.396 5.417-13.544-11.38 2.325-5.746 20.251 6.112-23.148-.257-6.177-2.05.191-1.855-2.848-3.311.308-4.222 28.06.996-28.554-3.948-3.123-1.325.123-.142-1.524-.841.079-.63 2.337 1.606 30.328-3.395-18.235-.108-1.156-.632-13.616.682-2.926-1.694-1.114-5.447 8.67 1.264 1.048-.598 6.098 1.292 13.873-1.422.663 5.558 19.835 5.745 13.882-2.6-.606 1.824 3.646 29.191 17.493z" fill="none" stroke="#292929" stroke-width=".5" stroke-miterlimit="10"/><path d="M106.9746 284.0112l-.036-3.923 2.214-4.053 2.98-2.207-.012-1.308 1.458-4.699 4.663-5.71.531-.55 1.5-.013.035 3.814 2.988-1.335 4.049-2.544 1.607-.014 2.022-1.653 2.245-.566 1.381-1.211 1.59-1.976 1.059-1.427.381-1.275-.83-.973s-.47-.577-.437-.904c.032-.327-.006-.691.565-.732.571-.042 1.004.39 1.361.424.357.033.074.326.357.033.284-.294 1.131-1.319 1.131-1.319l.56-1.313-.027-2.978-1.668-2.819-.981 2.116-1.06 1.318-.228-1.524-1.708.815-.994.663-1.287-.134-.93-.137.365.868s-11.291-.478-11.146-.189c.146.289 1.946 1.872 1.946 1.872l-5.719-.457-7.441-1.241-1.504-.422 4.106 3.741-4.87-1.264-2.346-2.015-1.5-3.75-.071-8.731 5.806-5.72 4.41 5.773 2.125-2.054 1.311-5.098 1.019-5.749.541-3.347 2.627-1.841.493 3.12 1.678-.088.524 2.756 2.968 4.188-.173 4.652s4.108-3.961 4.039-3.743c-.07.219 2.025 2.743 2.025 2.743l2.928-.099 1.161 1.951 2.436.85 7.573 7.924.351-.657 5.111 4.313-1.195 2.118.591 2.174-1.492.886.102 3.341 6.584 1.248 1.026 2.825-2.244 4.67 1.158 1.661-3.744 4.612.229 1.668s7.651-7.044 7.654-6.753c.003.29 2.171 3.031 2.171 3.031l4.616-2.948 6.146 8.083-9.354 8.367 8.462-4.291 1.876 2.018 4.555-1.93 9.079 8.636-.398 3.346-27.924 8.9 21.927-.562 7.277-1.011-.811 5.021-.534 4.074-1.913 1.761-1.994.672-2.768 2.132s-17.062 1.318-16.489 1.457c.573.141 23.88 2.109 23.88 2.109l.806 2.245 2.444 1.649-4.489 1.276-12.63 1.641s-13.73-1.474-13.442-1.259c.288.215 7.711 7.341 7.711 7.341s2.166 2.524 2.242 3.032c.076.508.229 1.669.229 1.669l1.658 1.656-1.204 1.174-.273 1.31-1.618 2.776-1.924.598-2.171-3.032s-3.447-2.076-3.662-2.074c-.214.002-3.716-.257-3.716-.257l-26.43-15.382-.227-1.451-7.404-5.092 5.992 6.921s-.13 1.455.086 1.67c.216.217 2.529 3.175 2.529 3.175l.022 2.397-2.739-2.736-21.006-16.085.264-2.328-2.575-8.259s-.458-3.266-.461-3.557c-.002-.29 5.853-.562 5.853-.562l2.567-.604.34-1.892-1.382-2.676-3.687-.838-3.428.067zM79.7617 229.8745l.771-1.714h.386v-3.258l1.157-1.714v-.943l-1.714-.257-1.457-10.672.429-1.671 1.585-.343 1.372 1.629v-1.629h.986s-.129-2.186 0-2.229c.128-.043.428 0 .428 0v-1.628l.814.728 2.829.043.9-1.286 2.743.943.857.086s-.471-.557-.3-.472c.172.086.686-.128.686-.128v-1.757l-.943-1.886-.428-2.315.299-.943s-.128-.813.215-.856c.343-.043.6-.343.6-.343h1.671s-.214.257 0 .3c.215.043.6.514.6.514l-.943.043-.514.342-.385.558v.729l.256.685s.515.772.643.729c.129-.043.172-.215.943-.172.772.043.986.129.986.129s-.171.3 0 .6l.172.3s.6.214.728.086c.128-.129.643-.172.643-.172l.386-.685.386-1.543v-1.715l.771 1.115s.343.557.428.685c.086.129.215.643.215.772v1.2l-.429 1.328s1.329-.086 1.457-.128c.129-.043.815-.729.815-.729s.471.214.771 0c.3-.214.643-.9.643-.9s.214-1.028.214-1.157v-1.414l.686 1.157.472.943v2.357l-1.072 2.057-2.1 1.543-1.543.515-1.114-.172-1.543 1.157-2.4 1.672-1.329 2.271-.386-.129s-2.571 1.5-2.614 1.629c-.043.129-.3.557-.3.9 0 .343.215.514.386.514s1.671-.342 1.671-.342v1.757l-.385.943s-.258 2.7-.258 3.214c0 .514-.385.815-.385.815l-.429-.386.129 1.8.471-.515.043 5.615.814-1.072.6.729.643.257-.428-6.428-.386-1.201.428-2.1 1.586-.643.043-1.371 1.286-1.286-.172-4.5 1.886-.257.772-.772 1.2.043.343 1.586.9-.9 3.643.729.256 1.714.986-.557.429-2.143 1.843 1.328v-3.385l.6-2.1 1.2-.986 2.657-.9s1.843-.343 2.143-.386c.3-.043-1.329 1.243-1.329 1.243l-1.671 2.529s-.172 2.185-.172 2.314c0 .128.772 1.714 1.029 1.757.257.043 1.929.686 1.929.686l1.585-.643 1.072-.729.343-.514v1.243l-.857.9-1.243.557h-.6l2.014.3s.771-.857.9-.9c.129-.043.429-1.029.429-1.029l.428-1.285.343 1.886s.343-.129.343.043v.642c0 .129-.557 1.329-.557 1.329l-.343.943-1.157.343-1.672.471-2.742.086-1.758 1.585-.685 1.758-1.672-.471-1.286.685-.728-.685-.557-.729-.258 1.2-1.071-.6-1.243-.043s-.086.986-.214.943c-.129-.043-1.929.514-1.929.514l.343 1.971-1.628-.128-1.115 1.714.257 1.415.343 3.386-.514 1.928-1.415-.814v3.3l-4.028 4.371-.729-.385-1.2.043-.343-1.415-.9.3-.686-1.2-1.628.214.128-1.328-3.857-3.514-3.643.214z" fill="none" stroke="#292929" stroke-width=".5" stroke-miterlimit="10"/><path d="M93.0479 235.7002c-.006.348-.013.695-.02 1.043l-.426-.177c.521-.482.888-1.016 1.136-1.682.096-.259.479-.227.491.066l.069 1.71c-.165-.022-.328-.044-.492-.066.44-1.193.68-2.415.716-3.686.009-.321.497-.323.5 0 .007.764.015 1.528.022 2.292.004.322-.496.322-.5 0-.007-.764-.015-1.528-.022-2.292h.5c-.037 1.316-.278 2.583-.734 3.818-.095.261-.479.227-.49-.066l-.069-1.71c.164.023.327.045.491.067-.276.742-.684 1.364-1.265 1.903-.154.143-.43.047-.427-.177.007-.348.014-.695.02-1.043.006-.322.506-.323.5 0" fill="#292929"/><path d="M94.8394 233.0376c.076.699.152 1.397.228 2.096l-.466-.126c.383-.732.578-1.506.592-2.332l.466.126c-.301.505-.4 1.04-.281 1.616-.164.023-.328.045-.491.067-.004-.65-.006-1.301-.01-1.951-.001-.322.499-.322.5 0 .004.65.006 1.301.01 1.951.001.275-.433.348-.491.066-.146-.709-.04-1.378.332-2.002.125-.209.47-.125.465.127-.016.913-.237 1.775-.661 2.585-.126.24-.441.098-.465-.127-.076-.699-.152-1.397-.228-2.096-.035-.319.466-.317.5 0M82.1899 225.7837c.965 0 .967 1.5 0 1.5-.965 0-.967-1.5 0-1.5M93.0024 235.0337c.965 0 .967 1.5 0 1.5-.965 0-.967-1.5 0-1.5M79.2524 231.5327c.713.039 1.388-.055 2.064-.285.458-.156.655.568.2.723-.734.25-1.49.354-2.264.312-.48-.026-.483-.776 0-.75" fill="#292929"/><path d="M95.3804 235.1147c-.049-.429-.114-.86-.146-1.291-.032-.436.135-.847.099-1.276-.016-.197.185-.383.375-.375.716.027.559 1.091.538 1.56h-.75c.027-.527.073-1.05.14-1.573.059-.472.81-.478.75 0-.067.523-.113 1.046-.14 1.573-.025.48-.772.484-.75 0 .008-.173.013-.344.009-.516-.004-.255-.104-.306.203-.294l.375-.375c.036.435-.126.839-.099 1.276.027.431.097.863.146 1.291.055.479-.695.475-.75 0" fill="#292929"/><path d="M248.6133 103.5635l14-2.25 8.25-5.5 3.75-9-1.5-9.25s-5.25-2.75-6.25-2.75-11.5 1.25-11.5 1.25l-8 1.75-7-1.75-7.25-1.75-1.25-2.5-1.5 1.75.521-5.96-4.021-1.79s-5.5-3-6.25-3.25-6.615 2.341-6.615 2.341l-3.135-2.591-2.784 3.118-2.491 4.119 11.38-2.324-5.417 13.544-.618 18.397 1.811-19.25 8.02-11.772.734.059-.128 1.328.64.617 1.367-.128-3.863 12.021-1.218 6.262 6.947-13.051 1.412-.767 2.789 3.768.185 5.39-4.203 6.669.437 1.484-3.25 4.391 12.937-.562-2.02 4.937 7.333-.834-.5 2.834 7.667-2.5.583 3.5z" fill="#a9815b"/><path d="M248.6133 103.5635l14-2.25 8.25-5.5 3.75-9-1.5-9.25s-5.25-2.75-6.25-2.75-11.5 1.25-11.5 1.25l-8 1.75-7-1.75-7.25-1.75-1.25-2.5-1.5 1.75.521-5.96-4.021-1.79s-5.5-3-6.25-3.25-6.615 2.341-6.615 2.341l-3.135-2.591-2.784 3.118-2.491 4.119 11.38-2.324-5.417 13.544-.618 18.397 1.811-19.25 8.02-11.772.734.059-.128 1.328.64.617 1.367-.128-3.863 12.021-1.218 6.262 6.947-13.051 1.412-.767 2.789 3.768.185 5.39-4.203 6.669.437 1.484-3.25 4.391 12.937-.562-2.02 4.937 7.333-.834-.5 2.834 7.667-2.5.583 3.5z" fill="none" stroke="#292929" stroke-width=".5" stroke-miterlimit="10"/><path d="M219.6357 133.4092l-.587-3.267-1.703-.831-.163-1.751-1.045-2.871 6.893 2.679 21.351-4.462-.189-2.032-1.041-1.317-10.266-.951 6.266-11.256-.412-4.414-.928-3.146-9.014 8.313 6.176-8.048-.465-4.993-3.638-2.629-9.022 7.837 1.39.118-3.497 3.435-.124-1.331-1.433 1.688 3.048-4.842.324-1.444 1.456.077 6.616-14.327-.184-5.389-2.789-3.769-1.413.768-6.947 13.051 1.219-6.263 3.73-11.16.132-.861-1.366.128-.195-2.102-1.051.098-8.021 11.772-1.81 19.25.618-18.397 5.417-13.544-11.381 2.325-5.745 20.252 6.111-23.149-.256-6.177-2.05.191-1.856-2.848-3.309.309-4.224 28.059.997-28.554-3.948-3.123-1.325.124-.142-1.525-.841.079-.63 2.338 1.606 30.327-3.395-18.235-.107-1.156-.633-13.616.682-2.925-1.695-1.115-5.446 8.67 1.264 1.048-.598 6.099 1.292 13.872-1.422.663 5.558 19.835 5.745 13.882-2.601-.606 1.825 3.647 29.191 17.492z" fill="#674731"/><path d="M219.6357 133.4092l-.587-3.267-1.703-.831-.163-1.751-1.045-2.871 6.893 2.679 21.351-4.462-.189-2.032-1.041-1.317-10.266-.951 6.266-11.256-.412-4.414-.928-3.146-9.014 8.313 6.176-8.048-.465-4.993-3.638-2.629-9.022 7.837 1.39.118-3.497 3.435-.124-1.331-1.433 1.688 3.048-4.842.324-1.444 1.456.077 6.616-14.327-.184-5.389-2.789-3.769-1.413.768-6.947 13.051 1.219-6.263 3.73-11.16.132-.861-1.366.128-.195-2.102-1.051.098-8.021 11.772-1.81 19.25.618-18.397 5.417-13.544-11.381 2.325-5.745 20.252 6.111-23.149-.256-6.177-2.05.191-1.856-2.848-3.309.309-4.224 28.059.997-28.554-3.948-3.123-1.325.124-.142-1.525-.841.079-.63 2.338 1.606 30.327-3.395-18.235-.107-1.156-.633-13.616.682-2.925-1.695-1.115-5.446 8.67 1.264 1.048-.598 6.099 1.292 13.872-1.422.663 5.558 19.835 5.745 13.882-2.601-.606 1.825 3.647 29.191 17.492z" fill="none" stroke="#292929" stroke-width=".5" stroke-miterlimit="10"/><path d="M237.4932 118.7832l-.035-3.923 2.214-4.053 2.98-2.207-.013-1.307 1.458-4.699 4.664-5.71.531-.55 1.5-.014.034 3.815 2.988-1.335 4.049-2.544 1.608-.015 2.021-1.652 2.245-.566 1.382-1.212 1.59-1.975 1.058-1.427.381-1.275-.83-.973s-.47-.577-.436-.904c.032-.328-.007-.691.564-.733.571-.041 1.004.391 1.361.424.358.033.075.326.358.033.283-.293 1.131-1.318 1.131-1.318l.559-1.313-.026-2.978-1.669-2.819-.981 2.116-1.06 1.317-.228-1.523-1.707.814-.994.663-1.287-.134-.931-.136.366.868s-11.291-.479-11.146-.19c.146.289 1.946 1.872 1.946 1.872l-5.719-.457-7.442-1.24-1.504-.423 4.106 3.742-4.869-1.264-2.347-2.015-1.5-3.75-.07-8.731 5.805-5.721 4.411 5.774 2.125-2.054 1.31-5.099 1.02-5.749.541-3.347 2.627-1.84.492 3.12 1.679-.088.524 2.756 2.967 4.187-.172 4.652s4.107-3.96 4.038-3.743c-.069.219 2.025 2.744 2.025 2.744l2.928-.1 1.161 1.951 2.437.851 7.573 7.924.351-.658 5.111 4.314-1.195 2.117.591 2.175-1.492.886.102 3.34 6.583 1.249 1.026 2.825-2.244 4.67 1.158 1.661-3.744 4.611.23 1.669s7.651-7.045 7.654-6.754c.002.291 2.17 3.032 2.17 3.032l4.617-2.948 6.145 8.082-9.354 8.368 8.463-4.291 1.876 2.018 4.555-1.931 9.079 8.637-.399 3.346-27.923 8.9 21.926-.563 7.278-1.01-.811 5.021-.535 4.073-1.913 1.762-1.994.672-2.767 2.132s-17.062 1.317-16.489 1.457c.573.141 23.88 2.109 23.88 2.109l.805 2.245 2.445 1.649-4.49 1.276-12.63 1.64s-13.729-1.474-13.441-1.258c.287.215 7.71 7.341 7.71 7.341s2.166 2.523 2.242 3.031c.076.508.23 1.669.23 1.669l1.658 1.656-1.204 1.174-.274 1.311-1.618 2.775-1.924.599-2.17-3.033s-3.448-2.075-3.662-2.073c-.215.002-3.717-.257-3.717-.257l-26.429-15.382-.228-1.452-7.404-5.091 5.992 6.921s-.13 1.455.087 1.67c.216.216 2.529 3.174 2.529 3.174l.022 2.398-2.739-2.737-21.007-16.085.265-2.327-2.576-8.26s-.458-3.265-.46-3.556c-.003-.291 5.853-.562 5.853-.562l2.566-.604.34-1.893-1.382-2.676-3.686-.838-3.429.067z" fill="#674731"/><path d="M237.4932 118.7832l-.035-3.923 2.214-4.053 2.98-2.207-.013-1.307 1.458-4.699 4.664-5.71.531-.55 1.5-.014.034 3.815 2.988-1.335 4.049-2.544 1.608-.015 2.021-1.652 2.245-.566 1.382-1.212 1.59-1.975 1.058-1.427.381-1.275-.83-.973s-.47-.577-.436-.904c.032-.328-.007-.691.564-.733.571-.041 1.004.391 1.361.424.358.033.075.326.358.033.283-.293 1.131-1.318 1.131-1.318l.559-1.313-.026-2.978-1.669-2.819-.981 2.116-1.06 1.317-.228-1.523-1.707.814-.994.663-1.287-.134-.931-.136.366.868s-11.291-.479-11.146-.19c.146.289 1.946 1.872 1.946 1.872l-5.719-.457-7.442-1.24-1.504-.423 4.106 3.742-4.869-1.264-2.347-2.015-1.5-3.75-.07-8.731 5.805-5.721 4.411 5.774 2.125-2.054 1.31-5.099 1.02-5.749.541-3.347 2.627-1.84.492 3.12 1.679-.088.524 2.756 2.967 4.187-.172 4.652s4.107-3.96 4.038-3.743c-.069.219 2.025 2.744 2.025 2.744l2.928-.1 1.161 1.951 2.437.851 7.573 7.924.351-.658 5.111 4.314-1.195 2.117.591 2.175-1.492.886.102 3.34 6.583 1.249 1.026 2.825-2.244 4.67 1.158 1.661-3.744 4.611.23 1.669s7.651-7.045 7.654-6.754c.002.291 2.17 3.032 2.17 3.032l4.617-2.948 6.145 8.082-9.354 8.368 8.463-4.291 1.876 2.018 4.555-1.931 9.079 8.637-.399 3.346-27.923 8.9 21.926-.563 7.278-1.01-.811 5.021-.535 4.073-1.913 1.762-1.994.672-2.767 2.132s-17.062 1.317-16.489 1.457c.573.141 23.88 2.109 23.88 2.109l.805 2.245 2.445 1.649-4.49 1.276-12.63 1.64s-13.729-1.474-13.441-1.258c.287.215 7.71 7.341 7.71 7.341s2.166 2.523 2.242 3.031c.076.508.23 1.669.23 1.669l1.658 1.656-1.204 1.174-.274 1.311-1.618 2.775-1.924.599-2.17-3.033s-3.448-2.075-3.662-2.073c-.215.002-3.717-.257-3.717-.257l-26.429-15.382-.228-1.452-7.404-5.091 5.992 6.921s-.13 1.455.087 1.67c.216.216 2.529 3.174 2.529 3.174l.022 2.398-2.739-2.737-21.007-16.085.265-2.327-2.576-8.26s-.458-3.265-.46-3.556c-.003-.291 5.853-.562 5.853-.562l2.566-.604.34-1.893-1.382-2.676-3.686-.838-3.429.067z" fill="none" stroke="#292929" stroke-width=".5" stroke-miterlimit="10"/><path d="M215.1133 66.8135l-.988-11.995-6.92-28.089-7.249-3.037-2.636 1.671-2.801-7.137-7.084-1.518-7.743 2.885-3.79-2.885s-4.443-1.395-4.882-1.395c-.44 0-1.977 2.632-1.977 2.632l-2.124.067s.659 1.08 0 1.148c-.659.067-2.197.404-2.197.404l-.952.742 13.401 14.172s-6.884-6.006-7.177-6.006c-.293 0-2.709-.067-2.709-.067l-1.904 7.288 11.79 6.006-6.957-2.294-4.686.135-.074 3.846 2.93 3.914s9.153.338 9.592.608c.44.269 5.492 1.957 5.492 1.957s2.709-3.374 2.709-3.645c0-.269.733 2.16.733 2.16l2.929.068.073 3.576 7.909 5.399 7.029.27 3.515 3.307.293 5.813h6.455z" fill="#674731"/><path d="M215.1133 66.8135l-.988-11.995-6.92-28.089-7.249-3.037-2.636 1.671-2.801-7.137-7.084-1.518-7.743 2.885-3.79-2.885s-4.443-1.395-4.882-1.395c-.44 0-1.977 2.632-1.977 2.632l-2.124.067s.659 1.08 0 1.148c-.659.067-2.197.404-2.197.404l-.952.742 13.401 14.172s-6.884-6.006-7.177-6.006c-.293 0-2.709-.067-2.709-.067l-1.904 7.288 11.79 6.006-6.957-2.294-4.686.135-.074 3.846 2.93 3.914s9.153.338 9.592.608c.44.269 5.492 1.957 5.492 1.957s2.709-3.374 2.709-3.645c0-.269.733 2.16.733 2.16l2.929.068.073 3.576 7.909 5.399 7.029.27 3.515 3.307.293 5.813h6.455z" fill="none" stroke="#292929" stroke-width=".5" stroke-miterlimit="10"/><path d="M213.998 64.9043l.771-1.715h.386v-3.257l1.157-1.715v-.942l-1.713-.258-1.458-10.671.428-1.671 1.586-.343 1.371 1.629v-1.629h.987s-.129-2.186 0-2.229c.129-.043.428 0 .428 0v-1.629l.815.729 2.828.043.9-1.286 2.743.943.857.086s-.471-.558-.3-.472c.172.086.686-.129.686-.129v-1.756l-.943-1.886-.428-2.315.299-.943s-.129-.813.215-.856c.343-.043.6-.343.6-.343h1.672s-.215.257 0 .3c.214.043.599.513.599.513l-.943.043-.514.343-.385.558v.728l.256.686s.515.771.643.728c.129-.043.172-.214.943-.171.772.043.986.128.986.128s-.171.301 0 .601l.172.3s.599.213.728.086c.129-.129.643-.172.643-.172l.385-.686.386-1.543v-1.714l.772 1.115s.342.556.428.685c.086.129.215.643.215.772v1.2l-.429 1.328s1.329-.086 1.457-.128c.128-.043.815-.73.815-.73s.471.215.771 0c.3-.213.643-.899.643-.899s.214-1.028.214-1.157v-1.414l.686 1.157.471.942v2.358l-1.071 2.056-2.1 1.543-1.543.515-1.114-.172-1.543 1.157-2.4 1.672-1.329 2.272-.385-.129s-2.573 1.5-2.615 1.629c-.042.129-.3.557-.3.9 0 .343.215.514.385.514.172 0 1.672-.343 1.672-.343v1.758l-.385.942s-.257 2.7-.257 3.215c0 .514-.386.815-.386.815l-.429-.386.128 1.8.472-.515.043 5.614.814-1.071.6.728.643.258-.428-6.428-.386-1.201.429-2.1 1.585-.643.043-1.371 1.286-1.286-.172-4.5 1.886-.258.771-.77 1.2.042.343 1.586.901-.9 3.642.729.258 1.714.985-.557.429-2.144 1.843 1.329v-3.385l.599-2.101 1.201-.985 2.657-.901s1.843-.342 2.143-.385c.3-.043-1.329 1.243-1.329 1.243l-1.671 2.528s-.172 2.187-.172 2.315c0 .128.772 1.714 1.029 1.757.258.042 1.928.686 1.928.686l1.586-.644 1.072-.728.342-.514v1.242l-.856.901-1.243.557h-.601l2.015.3s.771-.857.9-.9c.128-.043.429-1.029.429-1.029l.428-1.286.344 1.886s.342-.128.342.043v.643c0 .129-.557 1.329-.557 1.329l-.343.942-1.157.344-1.671.471-2.743.086-1.758 1.585-.686 1.757-1.671-.47-1.286.685-.728-.685-.558-.73-.257 1.2-1.071-.599-1.243-.043s-.086.985-.214.943c-.129-.043-1.929.514-1.929.514l.343 1.971-1.629-.128-1.114 1.714.257 1.414.343 3.386-.514 1.929-1.414-.815v3.3l-4.03 4.372-.728-.385-1.2.043-.343-1.415-.899.3-.687-1.2-1.628.214.128-1.328-3.856-3.515-3.644.215z" fill="#c79f73"/><path d="M213.998 64.9043l.771-1.715h.386v-3.257l1.157-1.715v-.942l-1.713-.258-1.458-10.671.428-1.671 1.586-.343 1.371 1.629v-1.629h.987s-.129-2.186 0-2.229c.129-.043.428 0 .428 0v-1.629l.815.729 2.828.043.9-1.286 2.743.943.857.086s-.471-.558-.3-.472c.172.086.686-.129.686-.129v-1.756l-.943-1.886-.428-2.315.299-.943s-.129-.813.215-.856c.343-.043.6-.343.6-.343h1.672s-.215.257 0 .3c.214.043.599.513.599.513l-.943.043-.514.343-.385.558v.728l.256.686s.515.771.643.728c.129-.043.172-.214.943-.171.772.043.986.128.986.128s-.171.301 0 .601l.172.3s.599.213.728.086c.129-.129.643-.172.643-.172l.385-.686.386-1.543v-1.714l.772 1.115s.342.556.428.685c.086.129.215.643.215.772v1.2l-.429 1.328s1.329-.086 1.457-.128c.128-.043.815-.73.815-.73s.471.215.771 0c.3-.213.643-.899.643-.899s.214-1.028.214-1.157v-1.414l.686 1.157.471.942v2.358l-1.071 2.056-2.1 1.543-1.543.515-1.114-.172-1.543 1.157-2.4 1.672-1.329 2.272-.385-.129s-2.573 1.5-2.615 1.629c-.042.129-.3.557-.3.9 0 .343.215.514.385.514.172 0 1.672-.343 1.672-.343v1.758l-.385.942s-.257 2.7-.257 3.215c0 .514-.386.815-.386.815l-.429-.386.128 1.8.472-.515.043 5.614.814-1.071.6.728.643.258-.428-6.428-.386-1.201.429-2.1 1.585-.643.043-1.371 1.286-1.286-.172-4.5 1.886-.258.771-.77 1.2.042.343 1.586.901-.9 3.642.729.258 1.714.985-.557.429-2.144 1.843 1.329v-3.385l.599-2.101 1.201-.985 2.657-.901s1.843-.342 2.143-.385c.3-.043-1.329 1.243-1.329 1.243l-1.671 2.528s-.172 2.187-.172 2.315c0 .128.772 1.714 1.029 1.757.258.042 1.928.686 1.928.686l1.586-.644 1.072-.728.342-.514v1.242l-.856.901-1.243.557h-.601l2.015.3s.771-.857.9-.9c.128-.043.429-1.029.429-1.029l.428-1.286.344 1.886s.342-.128.342.043v.643c0 .129-.557 1.329-.557 1.329l-.343.942-1.157.344-1.671.471-2.743.086-1.758 1.585-.686 1.757-1.671-.47-1.286.685-.728-.685-.558-.73-.257 1.2-1.071-.599-1.243-.043s-.086.985-.214.943c-.129-.043-1.929.514-1.929.514l.343 1.971-1.629-.128-1.114 1.714.257 1.414.343 3.386-.514 1.929-1.414-.815v3.3l-4.03 4.372-.728-.385-1.2.043-.343-1.415-.899.3-.687-1.2-1.628.214.128-1.328-3.856-3.515-3.644.215z" fill="none" stroke="#292929" stroke-width=".5" stroke-miterlimit="10"/><path d="M226.0986 70.8252c.116-.61.232-1.22.349-1.83.059-.316.542-.182.482.133-.117.61-.233 1.22-.35 1.83-.059.316-.542.182-.481-.133M227.2842 70.7295c-.007.348-.013.695-.02 1.043-.142-.059-.284-.117-.426-.177.52-.482.887-1.016 1.135-1.681.097-.259.48-.228.492.066.022.569.046 1.14.068 1.709-.163-.022-.327-.044-.491-.066.439-1.193.679-2.415.716-3.686.009-.32.497-.322.5 0 .007.765.015 1.528.022 2.292.003.322-.497.322-.5 0-.007-.764-.015-1.527-.022-2.292h.5c-.037 1.316-.279 2.583-.734 3.818-.095.261-.479.227-.491-.066-.022-.569-.046-1.14-.068-1.709.164.022.327.044.491.066-.276.743-.684 1.365-1.265 1.903-.154.143-.43.048-.427-.177.007-.348.013-.695.02-1.043.006-.321.506-.322.5 0" fill="#c79f73"/><path d="M227.0645 70.5c.121.397.182.943-.256 1.177-.419.223-.818-.091-.996-.47-.24-.514.267-1.841-.42-1.945-.917-.14-1.366 2.401-1.558 3.001-.161-.044-.322-.089-.483-.133.385-.912.859-1.761 1.448-2.558.121-.164.397-.164.457.06.278 1.042.289 2.078.039 3.127-.065.275-.492.214-.491-.067.004-.613.007-1.225.01-1.838l.25.25c-.375.043.411.56.46.575.144.045.377-.005.532-.001.223.005.439.021.65.104.334.133.568.362.635.719.06.314-.422.449-.481.133-.17-.903-1.868-.085-2.311-.955-.239-.47-.008-1.015.515-1.075.134-.016.251.126.25.25-.003.613-.006 1.225-.01 1.838-.163-.022-.327-.044-.491-.066.23-.965.217-1.903-.039-2.861.152.02.305.04.457.059-.562.76-1.03 1.568-1.397 2.439-.121.286-.583.182-.483-.133.263-.818.448-1.73.836-2.499.227-.45.59-.826 1.118-.861.444-.03.826.223.95.655.062.215.037.451.011.668-.028.24-.115.519-.054.759.139.54.487.164.371-.219-.094-.309.388-.441.481-.133M217.7422 63.8506c-.104.253-.209.506-.314.76-.011.075-.099.164-.174.174-.563.078-1.346-.135-1.877-.252-.876-.192-1.433-.519-1.994-1.246-.133-.171-.055-.414.176-.427.836-.051 1.672-.102 2.508-.152-.021.164-.044.328-.066.492-.953-.282-1.907-.562-2.862-.843-.271-.079-.217-.484.067-.491 1.507-.036 3.014-.074 4.52-.111-.021.164-.044.328-.066.492-1.272-.349-2.531-.598-3.844-.751-.258-.031-.365-.423-.066-.492 1.008-.231 1.891-.245 2.909-.047-.045.161-.089.322-.133.482-.985-.231-1.941-.323-2.949-.292v-.5c.625.002 1.249.004 1.874.006v.5c-.643-.076-1.279-.033-1.913.126.02-.153.04-.305.059-.457.699.395 3.097 1.611 2.056 2.642-.329.325-2.612.355-2.733.208.521.63 3.258.739 4.148.913.292.057.198.471-.066.492-1.283.097-2.566.196-3.848.295.022-.164.044-.328.067-.492.362.169.743.263 1.142.281.284.041.207.49-.066.491-.773.003-1.196-.237-1.897-.472-.154-.127-.307-.254-.462-.381-1.041-.478-1.754-.226-2.138.756-.4.527-.785 1.065-1.177 1.597-.187.253-.594.034-.432-.253 1.412-2.5 2.128-5.133 2.174-8.003.005-.274.432-.352.491-.067.27 1.291.347 2.51.227 3.83-.164-.022-.328-.044-.491-.067l-.15-1.104c.153-.02.305-.04.457-.06-.215.825-.115 1.623.299 2.393-.152.019-.305.04-.457.059.399-1.435.287-2.692-.383-4.032-.142-.286.264-.53.432-.252l2.124 3.522c-.152.063-.305.128-.457.192-.161-.607-.331-1.206-.541-1.799-.132-.37-1.236-2.282-.461-1.411.758.851 1.239 2.1 1.786 3.095.108.197-.07.414-.282.367-.968-.211-1.588-.666-2.097-1.505-.106-.177.073-.443.282-.367.651.235 1.741 1.099 2.333 1.135.353.315.391.156.114-.477-.032-.453-.171-.87-.419-1.251-.255-.63-.596-1.238-.891-1.85.152-.021.305-.041.457-.061-.147.535-.19 1.074-.13 1.619.012.243-.354.348-.466.127-.39-.781-.782-1.563-1.172-2.345l.465-.126c-.036 1.097.07 2.133.331 3.203.072.291-.293.415-.456.194-.887-1.203-1.775-2.405-2.663-3.609.153-.063.304-.127.456-.192.201 1.209.681 2.124 1.57 2.968-.142.058-.285.117-.427.177.002-1.257-.095-2.466-.304-3.706-.032-.196.169-.417.367-.284.955.648 1.48 1.493 2.009 2.505-.152.02-.305.04-.457.06-.069-.596-.139-1.193-.208-1.789.152-.02.305-.039.457-.06-.066.4-.004 4.106-.089 4.161-.17.114-.429-.245-.482-.412-.184-.583.362-.848.818-.88.227-.015.315.279.177.427-.772.829-.804 1.589-1.13 2.587-.209.636-1.044 1.644-.779 2.263.069.162.013.298-.15.367-.436.167-.846.38-1.232.64l-.126-.465c.733.019 1.892-.017 2.242-.796.488-.425.373-.53-.346-.313-.447-.004-.878.076-1.294.24-.023-.164-.045-.328-.067-.491 1.019 0 2-.101 2.999-.315.022.163.044.327.067.491-.428.041-.855.082-1.283.123v-.5c.982.099 2.532.483 2.245-1.023-.154-.806-1.092-1.909-1.499-2.619.153-.065.305-.128.457-.193.23.316.46.631.691.946.264.18.014.614-.253.432-.522-.357-.729-.619-.92-1.245-.083-.272.316-.438.457-.192.383.669 2.403 3.213 2.105 3.99-.381.989-2.606.472-3.283.404-.32-.032-.322-.47 0-.5.428-.041.855-.082 1.283-.123.279-.027.339.432.066.49-1.049.225-2.056.334-3.132.334-.283 0-.339-.414-.066-.491.964-.274 1.751-.346 2.744-.24.168.017.339.206.216.376-.853 1.184-1.959 1.755-3.429 1.715-.249-.007-.339-.334-.126-.466 1.126-.697.818-.574 1.213-1.683.313-.881.706-1.823 1.047-2.71.211-.548.536-.965.929-1.386.059.141.118.284.177.426 0 0 .67 1.156.701 1.339.021.116-.014.216-.114.282-2.028 1.341-1.43-4.445-1.316-5.123.035-.212.363-.242.457-.059.396.772.465 1.33.258 2.174-.05.204-.358.25-.456.059-.479-.913-.949-1.728-1.83-2.324.123-.095.246-.189.368-.283.214 1.278.323 2.542.321 3.84 0 .22-.271.324-.427.176-.958-.91-1.481-1.883-1.697-3.188-.048-.284.285-.425.457-.193.888 1.203 1.775 2.406 2.663 3.608l-.457.193c-.275-1.124-.388-2.175-.35-3.337.007-.233.349-.358.466-.126.391.782.782 1.563 1.173 2.344l-.466.126c-.028-.625.019-1.146.148-1.752.043-.203.364-.251.457-.059.601 1.25 2.198 3.235 1.538 4.669-.052.113-.241.166-.342.089-.91-.688-1.819-1.19-2.897-1.581.094-.122.188-.244.282-.367.392.749.991 1.175 1.798 1.276-.095.123-.189.245-.283.367-.608-1.107-2.421-3.121-1.861-4.427.073-.17.355-.157.432 0 .66 1.342 1.175 2.71 1.558 4.157.074.275-.309.437-.456.193l-2.124-3.522.432-.252c.726 1.452.869 2.849.433 4.417-.053.193-.362.262-.457.06-.436-.934-.543-1.759-.349-2.778.038-.201.371-.254.457-.059.243.549.288.902.2 1.489-.042.276-.517.215-.491-.066.114-1.261.051-2.454-.209-3.697.164-.022.328-.045.491-.066-.048 2.948-.792 5.688-2.242 8.256-.144-.084-.288-.169-.432-.253.6-.814 1.574-2.861 2.739-3.087.195-.037.421-.048.62.012 1.413.423-.193 1.338 2.747 1.328-.023.164-.045.327-.067.491-.399-.018-.78-.111-1.142-.28-.27-.095-.219-.469.066-.491 1.282-.099 2.565-.198 3.848-.295-.023.163-.045.327-.067.49-1.276-.25-3.148-.292-4.298-.862-.418-.208-.56-.244-.677-.696-.042-.16.077-.311.241-.316.369-.011 1.845.121 2.157-.063 1.28-.751-.341-1.496-1.012-1.877-.178-.099-.156-.415.059-.456.707-.136 1.318-.184 2.046-.144.318.017.324.501 0 .5-.625-.002-1.249-.004-1.874-.006-.322-.001-.321-.49 0-.5 1.065-.033 2.045.067 3.082.31.315.074.18.543-.133.482-.886-.231-1.766-.215-2.643.048-.023-.164-.044-.328-.067-.491 1.352.158 2.663.409 3.977.769.275.075.215.483-.067.49-1.506.037-3.013.075-4.52.111.022-.163.044-.327.066-.491.954.281 1.908.561 2.862.842.277.081.212.475-.067.491-.836.05-1.672.101-2.508.152.059-.143.118-.285.177-.427.526.681 1.868 1.283 2.761 1.123.557-.101.34.175.813-.458.191-.254.625-.005.432.253" fill="#c79f73"/><path d="M217.8857 64.8799c.259.145.517.289.775.434-.064.152-.128.304-.192.457-.387-.102-.773-.203-1.161-.304v-.5c1.099.059 2.051.025 3.163-.13v.482c-1.215-.311-2.429-.623-3.644-.935-.29-.074-.199-.463.067-.491 1.344-.141 2.442.115 3.593.823.209.129.126.466-.126.466-2.411.004-6.007-.706-7.09-3.279-.494-1.174.599.051 1.227.39.996.538 2.044.889 3.084 1.316.972.401 1.706.827 2.164 1.794.084.178-.018.362-.215.376-.819.063-1.388-.008-2.152-.253-.253-.082-.226-.53.067-.491.91.118 1.566.345 2.35.856.162.105.168.42-.059.457-.58.094-1.161.187-1.74.282-.022-.164-.045-.327-.067-.491.902-.001 2.312-.36 3.041.311.061.056.093.163.064.243-.248.687-.644.51-1.258.782-.065-.153-.128-.305-.193-.457.802-.242 1.286-.232 2.073.043.183.063.27.358.059.457-.712.332-1.097.383-1.883.164-.229-.065-.246-.427 0-.483.991-.223 1.982-.448 2.973-.672.313-.07.447.412.133.483-.991.224-1.982.447-2.973.672v-.483c-.083.1-.166.201-.249.3-.265.08-.456-.34-.192-.457 1.194-.527-1.251-.404-1.595-.403-.272 0-.352-.445-.066-.491.832-.135 2.772-.196-.418-.613.022-.164.044-.328.066-.491 2.386.764.509-.714-.606-1.148-.799-.312-1.562-.593-2.325-.994-.962-.503-2.59-1.079-2.881-2.233-.019-.079-.004-.19.065-.243.613-.476.962-.344 1.464.254.738.881 1.067 1.928 2.077 2.65 1.519 1.088 3.22 1.355 5.055 1.352-.042.155-.085.311-.127.467-1.067-.658-2.095-.886-3.34-.756.022-.163.045-.327.066-.491 1.215.312 2.429.624 3.644.935.222.058.253.447 0 .482-1.11.156-2.174.207-3.296.148-.319-.017-.322-.515 0-.5.886.04.623-.027 1.413.372.257.13.077.528-.192.457-.662-.176-.503-.089-.997-.562-.232-.224.122-.577.354-.354M229.0752 68.0674c.076.698.152 1.397.228 2.096l-.466-.126c.383-.733.578-1.506.592-2.332l.466.126c-.3.505-.399 1.04-.281 1.616-.163.022-.327.045-.491.066-.003-.649-.006-1.3-.01-1.95-.001-.322.499-.322.5 0 .004.65.007 1.301.01 1.95.002.276-.433.349-.49.067-.146-.709-.041-1.378.331-2.002.125-.209.47-.125.465.127-.015.913-.237 1.774-.661 2.585-.126.24-.441.098-.465-.127-.076-.699-.152-1.398-.228-2.096-.034-.319.466-.317.5 0" fill="#c79f73"/><path d="M213.0234 65.1621l-.153.24c-.308-.307-.615-.615-.922-.923 1.231-.247 2.469-.454 3.713-.622.936-.126 1.337 1.121.399 1.447-1.839.639-3.895.53-5.647 1.42-.127-.465-.253-.931-.379-1.397 1.766-.118 3.51-.352 5.245-.705.133.481.266.964.399 1.446-1.027.191-1.964.533-3.02.602v-1.5c1.027-.02 2.007-.152 3.003-.405.935-.239 1.335 1.209.398 1.446-1.119.285-2.247.436-3.401.459-.973.018-.956-1.439 0-1.5.919-.06 1.728-.382 2.621-.548.94-.175 1.349 1.253.399 1.446-1.865.379-3.745.632-5.644.759-.737.049-1.032-1.066-.379-1.398 1.892-.961 4.03-.885 6.006-1.572.133.483.266.965.399 1.447-1.245.168-2.482.375-3.714.622-.505.101-1.143-.345-.923-.923.149-.388.264-.59.539-.902.642-.723 1.7.34 1.061 1.061M216.4258 60.8135c.966 0 .967 1.5 0 1.5-.965 0-.967-1.5 0-1.5" fill="#c79f73"/><path d="M216.3633 60.751c.966 0 .967 1.5 0 1.5-.965 0-.967-1.5 0-1.5" fill="#c79f73"/><path d="M216.3633 60.751c.966 0 .967 1.5 0 1.5-.965 0-.967-1.5 0-1.5M227.2383 70.0635c.966 0 .967 1.5 0 1.5-.965 0-.967-1.5 0-1.5" fill="#c79f73"/><path d="M227.0303 71.8799c.142-1.305.403-2.563.829-3.807.265-.775 1.479-.681 1.473.2-.002.324-.004.649-.006.973l-1.474-.199c.246-.838.246-1.577-.003-2.417-.274-.928 1.173-1.323 1.447-.398.319 1.075.32 2.137.003 3.213-.236.802-1.479.662-1.473-.199.002-.324.004-.649.006-.973l1.473.199c-.38 1.113-.648 2.238-.775 3.408-.103.949-1.604.96-1.5 0M213.4424 63.3037c-.432 1.011-1.085 1.687-1.966 2.323.179-.684.359-1.368.538-2.052-.691-.27-.776-.38-.258-.331.315-.002.628-.003.942-.005.628-.004 1.255-.008 1.882-.011 1.15-.007 2.301-.034 3.451-.021 1.689.02 3.23.854 2.715 2.787-.497 1.864-3.392 1.073-2.893-.797.033-.125.067-.251.1-.376.051.384.101.77.151 1.155-.077-.117-.155-.234-.232-.352.299.23.597.46.896.69-.771-.278-1.802-.1-2.619-.096-1.046.007-2.092.013-3.138.019-1.266.007-2.951.239-3.588-1.148-.364-.794-.174-1.538.539-2.053.464-.336.67-.735.889-1.247.757-1.769 3.342-.243 2.591 1.515" fill="#c79f73"/><path d="M210.0303 64.5635c1.931 0 1.934 3 0 3-1.931 0-1.934-3 0-3" fill="#c79f73"/><path d="M209.6973 64.5635c1.93 0 1.934 3 0 3-1.931 0-1.934-3 0-3" fill="#c79f73"/><path d="M212.0303 64.5635c1.931 0 1.934 3 0 3-1.931 0-1.934-3 0-3" fill="#c79f73"/><path d="M213.5303 64.5635c1.931 0 1.934 3 0 3-1.931 0-1.934-3 0-3" fill="#c79f73"/><path d="M215.1973 64.0635c1.93 0 1.934 3 0 3-1.931 0-1.934-3 0-3M225.8633 69.2295c1.931 0 1.934 3 0 3-1.93 0-1.934-3 0-3M223.1973 66.5635c1.93 0 1.934 3 0 3-1.931 0-1.934-3 0-3" fill="#c79f73"/><path d="M224.1016 67.9766c1.175.621.938 2.353.183 3.229-.246.286-.751.322-.848-.13-.057-.268.101-.578.161-.833.106-.442.185-.887.247-1.336.229.096.456.192.685.289-.379.68-1.378.666-2.052.604-.305-.028-.518-.399-.266-.64.046-.078.111-.119.195-.123l.261.261c-.099-.03-.201-.039-.304-.025-.483.012-.483-.738 0-.75.301-.007.679-.004.774.349.086.319-.182.616-.394.818-.089-.213-.177-.427-.266-.64.34.031 1.199.137 1.404-.233.224-.402.741-.103.686.289-.049.353-.108.704-.183 1.052-.034.159-.07.316-.11.473-.023.088-.046.464-.095.308-.088-.088-.175-.175-.262-.263.023.008.045.015.069.022-.097.012-.194.025-.289.038.085-.051.22-.401.259-.486.087-.189.171-.405.205-.614.064-.41-.06-.811-.439-1.012-.427-.225-.048-.873.379-.647M213.4883 66.5625c.714.038 1.389-.056 2.064-.285.458-.156.655.568.2.722-.734.25-1.49.355-2.264.313-.479-.026-.482-.776 0-.75M216.4238 62.0605c-1.035.18-2.06.394-3.08.643-.406.098-.667-.47-.289-.686.582-.333 1.124-.489 1.795-.525.485-.027.476.711 0 .75-.5.339-.7.765-.602 1.277.019.421-.638.512-.737.1-.296-1.247-.593-2.494-.889-3.741.229.03.457.06.685.09-.089.14-.178.28-.267.421-.179.281-.582.217-.685-.09-.075-.217-.961-1.927-1.323-1.748.026-.012.113.189.103.216-.18.509-.199 1.216-.316 1.751-.047.217-.362.369-.551.225-.407-.311-.599-.555-.76-1.055.245-.033.491-.066.736-.1.038.043.077.086.116.13.475.049.48.8 0 .75-.575-.059-.823-.304-.866-.88-.032-.438.612-.486.737-.1.138.203.277.405.416.607-.184.074-.368.15-.551.224.092-.421.276-.93.293-1.357.003-.09-.139-.14-.111-.265.072-.315.066-.532.412-.684 1.084-.476 2.139 1.355 2.387 2.087-.228-.029-.457-.06-.684-.089l.266-.422c.166-.26.609-.236.686.09.297 1.246.593 2.493.89 3.74-.246.034-.492.067-.737.1-.047-1.036.203-1.933 1.352-2.027v.75c-.517-.01-.989.131-1.417.422-.096-.228-.193-.457-.288-.685 1.02-.249 2.045-.463 3.08-.642.471-.082.675.641.199.723M229.6162 70.1445c-.049-.43-.114-.86-.146-1.291-.032-.437.135-.847.099-1.276-.016-.198.186-.382.375-.375.717.027.559 1.091.538 1.559h-.75c.027-.526.073-1.049.14-1.572.06-.473.81-.479.75 0-.067.523-.113 1.046-.14 1.572-.024.481-.772.485-.75 0 .008-.172.013-.344.01-.515-.005-.255-.105-.306.202-.294l.375-.375c.036.435-.126.839-.099 1.276.027.431.097.863.146 1.291.056.479-.695.475-.75 0" fill="#c79f73"/><path d="M208.3965 62.2432c-.104-2.315-1.658-4.345-2.782-6.289-1.346-2.324-2.657-4.726-5.919-4.05.348-.349.698-.699 1.048-1.048-.025.096-.049.191-.073.286-.128-.486-.257-.972-.385-1.459.599.709 2.757 1.093 3.633 1.523 1.313.644 2.516 1.436 3.674 2.326 1.511 1.16.018 3.768-1.513 2.591-2.111-1.621-4.232-2.432-6.639-3.455-1.151-.49-1.923-1.289-1.591-2.61.121-.478.554-.945 1.048-1.047 1.586-.329 3.921.006 5.436.577 1.32.498 1.908 1.479 2.599 2.653 1.805 3.068 4.3 6.336 4.464 10.002.086 1.931-2.914 1.927-3 0" fill="#c79f73"/><path d="M202.2061 49.0449c-.356.788-.713 1.575-1.068 2.363-.217-.126-.433-.252-.649-.378.778-1.403 1.556-2.806 2.336-4.208.597-1.072 1.111-2.216 2.066-3.02.26-.22.604-.065.639.265.212 1.978.568 3.917 1.062 5.843.121.47-.576.658-.723.199-.543-1.69-.996-3.4-1.363-5.138.209.055.418.11.627.166-.394.36-.36 1.178-.579 1.671-.295.664-.716 1.184-1.246 1.675-.231.214-.648.072-.64-.265.01-.481.073-.861.238-1.32.24.067.482.133.723.2-.369.911-.858 1.623-1.608 2.267-.201.173-.56.129-.627-.166-.112-.502-.112-.879 0-1.38.107-.47.83-.271.724.2v.981l-.627-.165c.639-.549 1.094-1.145 1.415-1.937.177-.437.888-.263.723.2-.162.352-.233.726-.211 1.12-.214-.088-.427-.177-.641-.265.823-.761 1.101-1.469 1.405-2.503.108-.368.13-.578.42-.843.196-.179.566-.125.627.165.367 1.738.821 3.447 1.363 5.138-.241.067-.483.133-.723.199-.512-1.99-.87-4-1.089-6.042.214.088.427.177.641.265-1.027.865-1.582 2.21-2.224 3.364-.688 1.237-1.375 2.474-2.059 3.712-.239.431-.843.053-.649-.378l1.07-2.364c.198-.438.844-.058.647.379" fill="#c79f73"/><path d="M201.4492 50.1465c-1.332-.074-2.499-.799-2.288-2.379.332-2.475 3.677-2.328 5.372-2.261l-.53 1.281c-1.223-1.509-3.353-4.829-1.352-6.602 1.366-1.21 2.708.014 3.624 1.138.816 1 2.068 3.343.333 4.261-2.355 1.246-2.516-2.316-3.372-3.221-.676-.715.326-1.665 1.061-1.061 2.489 2.046 3.406 2.603 1.253 4.806-1.453 1.486-3.455 3.439-5.285 1.444.427-.177.855-.353 1.282-.53.277 2.314.685 9.135-3.22 8.82-.391-.032-.769-.318-.75-.75.112-2.62-2.544-5.281-3.167-7.81l1.254.331c.995 2.232 1.563 2.647 1.704 1.242.25-.857.291-1.738.121-2.641-.012-.869 1.215-.987 1.474-.2.336 1.027 1.132 2.887.257 3.884-.205.234-.673.26-.899.383-.565.085-1.137.093-1.713.022-2.67-.25-2.011-.185 1.976.194l.199 1.473c-1.343-.033-3.55-.201-4.578.769-.194.097-.4.154-.614.17-.946-.133-.276.018 2.011.455-.127-.466-.253-.932-.379-1.398 1.789-.081 3.351.033 5.1.331.619.106.639.862.331 1.253l-.674.859-.331-1.254c3.338.544 6.256 1.543 9.229 3.118.623.329.375 1.491-.378 1.397-6.1-.759-6.287-7.355-3.998-11.827l1.026 1.026c-1.835.528-2.395 1.094-1.682 1.698.342.406.808.346 1.401-.181.038-1.137-.416-1.475-.249-2.786.107-.84 1.154-1.017 1.472-.199 2.036 5.219 5.419 9.739 7.304 15.026.306.856-.908 1.22-1.37.577-3.226-4.475-6.396-8.987-9.516-13.537-.475-.694.643-1.576 1.178-.909l6.492 8.079c.483.6-.167 1.735-.908 1.178-1.524-1.144-2.479-2.232-3.279-3.996-1.205-2.654-1.029-6.614-3.426-8.566-.628-.51.067-1.391.73-1.253 9.163 1.913 11.232 15.641 10.672 23.332-.069.958-1.457.973-1.5 0-.317-7.179-3.247-13.446-6.609-19.669-.46-.853.775-1.571 1.295-.757 1.215 1.898 2.43 3.798 3.645 5.697-.457.192-.914.386-1.371.578-2.041-5.688-4.265-11.333-5.599-17.239-.127-.564.352-1.062.923-.923 1.259.307 1.348.968 1.876 2.132 1.483 3.277 2.85 7.002 3.689 10.486.203.848-.894 1.274-1.371.578-1.966-2.87-1.568-6.025-1.194-9.374.085-.76 1.318-1.109 1.472-.199 1.103 6.478 2.916 12.781 4.585 19.131.249.946-1.121 1.296-1.446.399-1.43-3.945-2.604-7.849-3.122-12.02-.105-.842 1.282-1.012 1.474-.199.743 3.165-3.199 3.597-5.516 3.772-2.081.157-3.75.113-5.51-1.056-1.142-.758-1.898-2.033-2.948-2.908-2.693-2.244.961 1.879 1.463 2.576.492.685-.644 1.574-1.179.909-.866-1.078-1.396-2.023-1.841-3.329-.202-.59.573-1.229 1.102-.846 1.221.883 2.233 1.766 3.257 2.888.458.502.017 1.552-.73 1.253-.044-.017-1.453 1.541-1.782 1.758-.217.143-.538.134-.757 0-1.125-.689-2.022-1.721-2.983-2.616.418-.11.836-.221 1.253-.33l.099 2.338c.069.242.004.559-.193.73l-.873.753-.53-1.28c1.711.177 5.045.294 6.334-1.098.841-.909.403-3.424.373-4.504-.03-1.057-.259-1.815.24-2.863.111-.233.401-.372.648-.372 1.747.002 2.995 1.626 1.599 3.001-.19.187-.471.266-.73.192-.815-.23-.962-.334-1.174-1.171-.238-.936 1.202-1.334 1.446-.399.149.573.3 1.148.449 1.721-.491.066-.982.133-1.473.199-.077-1.019.289-1.525.483-2.432.057-.271.792-.61.809-.849.066-.867-1.516-2.677-1.901-3.27.466-.127.932-.253 1.398-.379.161.969.322 1.939.483 2.908-.456.193-.913.385-1.37.578-.471-1.126-1.09-1.923-.434-2.988.168-.272.529-.448.847-.344 1.929.63 2.931 2.57 3.798 4.296-.457.059-.914.119-1.371.179.395-1.02.468-2.05.218-3.088-.111-.876 1.221-.958 1.474-.199.568 1.71.462 1.203.557 3.003h-1.5c.147-.989.178-1.982.092-2.978h1.5c.136 5.122-.064 10.141-3.958 13.93-2.866 2.789-5.823 4.577-9.322 2.18.252-.433.505-.864.757-1.296 2.922 2.242 5.375 3.094 9.008 3.488 1.675.182 2.549.001 3.963.997 2.63 1.855 4.274 4.693 3.564 7.863-.19.85-1.441.622-1.473-.2-.139-3.565-1.397-6.7-5.154-7.937-1.888-.622-4.111-.624-6.063-1.047.192-.457.385-.914.578-1.371 3.492 1.548 6.155.905 6.253-2.751.035-1.322-.839-2.873-1.274-4.127-.326-.941-.951-1.778-.721-2.775.287-1.247 2.587-4.294 4.073-4.301.329-.001.635.234.723.551.249.898.15.836.083 2.091-.052.961-1.552.967-1.5 0 .719-1.237.763-1.417.13-.537-.42.538-.841 1.076-1.261 1.616-.81 1.627-.415 2.013.209 3.771.898 2.53 1.407 5.112 1.759 7.766.039.287-.258.682-.55.722-3.138.432-5.753.567-8.682-.731-.81-.36-.21-1.542.578-1.37 3.354.727 7.743.555 10.508 2.93 2.184 1.876 1.708 4.856 1.811 7.5-.492-.066-.982-.132-1.473-.199 1.519-6.784-5.571-6.317-9.2-6.996-2.524-.472-4.667-2.139-6.646-3.657-.744-.571-.056-1.854.757-1.296 3.714 2.545 8.638-2.443 9.951-5.607 1.221-2.943 1.155-6.075 1.072-9.207-.025-.966 1.474-.965 1.5 0 .086.996.055 1.989-.092 2.978-.085.953-1.449.977-1.5 0-.167-.868-.335-1.736-.503-2.604.491-.067.982-.133 1.472-.2.174 1.364.172 2.218-.272 3.487-.196.562-1.061.796-1.37.178-.253-.881-.742-1.588-1.47-2.119.326.78-.994 1.334-1.371.578-.649-1.305-.847-2.218-.688-3.665.079-.723.968-1.04 1.397-.379.843 1.301 1.686 2.602 2.527 3.903.203.312.091.867-.268 1.026-.482.793-.963 1.587-1.445 2.38.064.853-1.262 1.006-1.473.199-.15-.573-.3-1.146-.449-1.72.482-.133.963-.266 1.446-.399.537 2.12 1.15 4.757-.47 6.526-1.981 2.164-5.579 2.466-8.266 2.188-.581-.061-1.072-.814-.531-1.28.067-.058.562-3.066.581-3.16.12-.578.867-.692 1.254-.332.747 1.317 1.783 1.539 3.109.666.135-.343.513-.687.922-.524.277.11.553.221.83.331l-.73 1.254c-.846-1.032-1.83-1.917-2.954-2.654.368-.282.735-.565 1.103-.847.485.889.97 1.777 1.455 2.666-.393.303-.786.607-1.178.909-1.031-1.434-3.112-3.234-2.664-5.155.091-.392.545-.634.922-.524 1.313.38 2.131.84 3.151 1.771 1.53 1.396 1.326 1.441 3.785 2.273.424.144 8.004 2.461 7.165-1.108l1.474-.199c.503 4.049 1.684 7.802 3.068 11.621l-1.446.399c-1.669-6.35-3.482-12.654-4.585-19.131l1.474-.2c-.331 2.96-.853 5.928.989 8.617-.457.193-.914.385-1.371.578-.369-1.536-2.779-11.147-4.517-11.571l.923-.923c1.333 5.907 3.559 11.553 5.599 17.241.297.828-.931 1.266-1.371.577l-3.645-5.697c.432-.253.863-.505 1.295-.757 3.5 6.477 6.484 12.963 6.814 20.426h-1.5c.498-6.833-1.341-20.167-9.571-21.885l.73-1.254c3.835 3.121 2.094 9.097 6.401 12.327-.303.393-.605.785-.909 1.178-2.164-2.694-4.328-5.386-6.492-8.079.392-.303.785-.606 1.177-.91 3.12 4.551 6.291 9.063 9.516 13.539-.457.192-.914.385-1.371.578-1.883-5.282-5.27-9.81-7.304-15.026.491-.066.983-.133 1.474-.2-.092 1.002.025 1.965.348 2.887.105.337-.075.658-.344.847-1.132.791-2.78 1.199-4.157 1.192-.362-.002-.599-.237-.724-.551-.719-1.796 1.959-3.515 3.15-4.401.651-.484 1.334.424 1.026 1.026-1.47 2.872-2.657 8.902 2.703 9.57-.127.466-.253.932-.379 1.398-2.864-1.518-5.7-2.45-8.871-2.967-.621-.101-.636-.864-.331-1.253l.675-.858.331 1.254c-1.559-.344-3.126-.436-4.702-.278-.711.032-1.067-1.091-.378-1.398 1.507-.672 2.635-1.033 3.262.756.088.252-.016.546-.192.73-1.541 1.606-5.664.919-5.9-1.518-.051-.537.519-.787.95-.723 1.517.225 1.64-.739 2.811-.911.908-.134 2.088.046 3.007.068.849.021 1.013 1.222.199 1.473-2.043.631-5.535.523-5.83-2.182-.029-.272.17-.504.372-.647 1.381-.989 5.1.683 3.991-2.7l1.474-.2c.019 1.326.037 2.652.056 3.977.006.424-.35.726-.75.75-2.769.172-6.222-1.483-3.692-4.389.371-.426 1.124-.194 1.254.33.398 1.618 1.549 4.368 2.982 5.426.258.192.037 1.314.295 1.465 1.45.848.985-6.145.913-6.751-.079-.653.868-.98 1.28-.53.419.457 4.857-1.706 1.909-4.129l1.061-1.061c-.325-.344.713.886.724.894 1.163.825-1.062 2.168.042 3.53.379.468.177 1.309-.53 1.28-1.383-.38-2.411.166-3.084 1.64.96.054.966 1.554 0 1.5" fill="#c79f73"/><path d="M210.1895 53.3535c1.081-5.371-7.526-10.002-3.826-15.397.352-.515 1.194-.478 1.371.178.297 1.105.595 2.209.892 3.314.251.933-1.196 1.332-1.447.399-.297-1.104-.594-2.209-.891-3.313.457.059.913.119 1.37.178-3.021 4.406 5 9.96 3.977 15.039-.19.946-1.635.545-1.446-.398M194.167 52.25c.965 0 .967 1.5 0 1.5-.966 0-.967-1.5 0-1.5" fill="#c79f73"/><path d="M192.25 41.625c.965 0 .967 1.5 0 1.5-.965 0-.967-1.5 0-1.5" fill="#a9815b"/><path d="M195.4072 45.8008c-1.187-.368-2.068-.91-2.903-1.836l1.177-.908c.668.904 1.424 1.572 2.384 2.156.823.501.084 1.777-.757 1.296-1.314-.753-3.084-2.861-2.163-4.521.7-1.263 2.287-.246 3.007.506.891.931.661 1.989-.724 2.14-.712.077-1.14-.286-1.758-.525-.225-.459-.505-.511-.84-.156.156.105.312.208.469.313.314.472.636.578.88 1.13.178.402.075 1.003-.448 1.101.13-.024-1.654.347-1.516.081.004-.009 1.369.843 1.488.936.611.477.906.859 1.192 1.553.226.545-.423 1.063-.922.921-1.244-.352-2.411-1.133-2.814-2.428-.281-.906-.039-2.2 1.077-2.433.794-.165 1.67.436 1.681 1.282.009.645-.628.811-.794 1.28-.383 1.082.789 2.126 1.093 3.085.078.247-.006.551-.193.729-.323.306-.451.306-.804.478-.336.165-1.385-.483-.363.158.817.512.065 1.81-.757 1.296-1.417-.889-2.015-2.739-.016-3.225 1.012-.246.393.604.221.063-.227-.718-.876-1.2-.93-2.002-.027-.378.013-.788.212-1.127.137-.191.297-.364.476-.517.5 1.033 1.271 1.671 2.31 1.915l-.923.923c-.531-1.287-2.709-1.418-2.815-3.041-.116-1.756 1.674-1.18 2.699-1.373l-.448 1.102c-.541-1.223-3.417-2.328-1.51-3.987 2.293-1.996 3.531 2.384 4.69 3.047-.253.432-.505.863-.757 1.296-1.18-.719-2.102-1.585-2.922-2.695-.505-.685.611-1.536 1.178-.909.653.722 1.293 1.156 2.242 1.45.919.284.527 1.733-.399 1.446" fill="#a9815b"/><path d="M194.8867 42.25c.031-.97-.114-1.908-.437-2.814-.215-.76.71-1.2 1.253-.73 1.635 1.414 2.759 3.036 3.588 5.024.178.427-.275.995-.723.95-1.404-.143-3.856-2.697-1.903-3.757 2.158-1.17 4.744 2.519 4.921 4.258.074.724-1.097 1.045-1.397.378-1.323-2.938-2.344-5.943-3.054-9.088-.155-.693.722-1.311 1.254-.73 1.215 1.325 2.343 2.705 3.411 4.151.233.315.063.854-.268 1.026-.782.404-1.574.381-2.128-.417-.262-.376-.303-.804-.333-1.265-.109-1.674.214-2.896-.517-4.575-.228-.521.164-1.365.847-1.101 2.174.84 2.517 3.147 4.398 4.321l-1.101.448c.616-2.043-.174-3.843.186-5.803.163-.888.631-1.836 1.613-2.053.627-.14 1.054.074 1.509.433 1.481 1.167 2.496 4.475 3.299 6.097-.457.06-.914.119-1.371.18.221-.731-2.576-4.852-3.082-2.271-.1.503.669 1.161.6 1.715-.083.675-.467 1.056-1.12 1.146-.355.05-.641-.039-.847-.344-.378-.563-.565-1.203-.807-1.836h1.446c-.047.159-.093.319-.141.479-.273.924-1.721.531-1.447-.399.048-.159.095-.319.142-.48.223-.753 1.191-.668 1.446 0 .173.513.392 1.006.657 1.479-.283-.115-.566-.23-.848-.345-.495.069-1.525-4.832 1.078-4.619 1.138.094 2.807 2.147 3.491 2.912.843.943 1.25 1.732.878 2.961-.175.579-1.072.782-1.37.179-.624-1.26-1.259-2.515-1.92-3.756-.458-.858-1.238-3.469-1.734-.471-.009.052.273 2.129.265 2.495-.02.941-.206 1.8-.477 2.701-.136.45-.681.71-1.102.448-1.617-1.01-2.282-3.491-4.04-4.171l.847-1.102c.382.876.692 1.684.81 2.647.034.267.159 3.05.116 3.072l-.27 1.025c-.996-1.347-2.046-2.612-3.177-3.846l1.254-.73c.68 3.015 1.631 5.91 2.902 8.73-.466.126-.932.252-1.398.379-.181-1.074-.751-1.857-1.706-2.349-.899-.44-.837-.325.188.348-.242.316-.483.632-.723.949-.726-1.739-1.787-3.138-3.202-4.362l1.254-.73c.311 1.102.456 2.079.49 3.213.029.966-1.471.965-1.5 0" fill="#a9815b"/><path d="M190.9795 45.5654c-1.643.106-1.32.135-2.81-.559-.551-.257-.452-1.284.18-1.371 1.333-.184 1.17-.252 2.428.24.883.343.559 1.679-.399 1.446-2.755-.671-4.659-2.062-6.173-4.455-.343-.541.228-1.303.847-1.102 2.347.764 4.283 1.757 6.261 3.263.453.346.528 1.24-.179 1.371-1.603.298-2.878-.351-3.58-1.891-.126-.277-.156-.692.117-.909 1.482-1.178 3.172-.941 4.894-.41l-.847 1.102c-.41-.999-.973-1.908-1.69-2.726-.401-.501-.048-1.581.729-1.254 2.025.853 3.737 1.884 5.428 3.291.512.425.083 1.289-.53 1.28-1.681-.023-2.384-.428-3.355-1.789-.397-.556.257-1.254.847-1.101 1.392.359-.168-2.709-.334-3.404-.142-.593.533-1.234 1.102-.846 2.06 1.405 3.631 2.984 5.024 5.054-.457.193-.914.385-1.371.579-.509-2.423-1.216-4.597-2.27-6.854-.32-.684.329-1.369 1.026-1.025 1.196.59 2.2 1.201 3.272 1.993l-1.101.847c-.646-1.973-1.29-3.947-1.935-5.92-.202-.619.558-1.189 1.102-.847 2.706 1.699 4.442 3.811 5.64 6.764-.482.132-.965.265-1.446.398-.228-.668-2.272-2.803-3.144-3.907-.415-.527-.148-1.216.531-1.281 1.967-.188 3.13.462 4.173 2.082l-1.398.378c.096-1.352-.216-5.471 2.006-5.724 2.299-.263 4.642 5.013 5.577 6.304.519.715-.578 1.461-1.178.909-1.404-1.292-2.716-2.633-3.98-4.064-.637-.72.421-1.786 1.061-1.06 1.263 1.43 2.576 2.771 3.98 4.063-.393.303-.785.606-1.178.909-.686-.947-1.535-2.921-2.496-3.444-1.509-.822-2.152.135-2.292 2.107-.052.74-.981 1.024-1.397.378-.959-.446-1.919-.892-2.878-1.338l.53-1.281c1.521 1.928 2.685 2.087 3.529 4.571.317.931-1.093 1.27-1.446.398-1.064-2.621-2.561-4.366-4.952-5.867.368-.282.735-.565 1.102-.847.645 1.973 1.29 3.946 1.935 5.92.191.586-.57 1.239-1.102.847-1.073-.792-2.076-1.404-3.272-1.993l1.026-1.027c1.093 2.342 1.888 4.673 2.421 7.211.177.839-.889 1.293-1.37.578-1.344-1.997-2.498-3.16-4.486-4.516l1.101-.847c.237 1.605.87 3.008 1.901 4.211.267.383.002 1.01-.449 1.102-1.645.337-1.336.355-2.962-.065l.846-1.101 2.06 1.045-.53 1.281c-1.403-1.275-2.992-2.243-4.767-2.906.244-.418.487-.835.73-1.253.782.978 1.378 1.89 1.925 3.03.267.555-.178 1.307-.847 1.101l-1.431.318-.179 1.371c-1.827-1.393-3.704-2.398-5.903-3.112.282-.368.564-.735.847-1.102 1.237 1.954 3.042 3.222 5.277 3.766-.133.481-.266.963-.399 1.446-.544-.08-1.086-.159-1.63-.239.059-.457.12-.914.179-1.371l2.052.354c.964-.062.96 1.438 0 1.5" fill="#906a47"/><path d="M190.1621 46.415l-2.93-.58c.133-.482.266-.965.399-1.446 1.622.385 3.033 1.339 3.91 2.775.628 1.027.849 2.769-.818 2.784l.53-1.28c.885.85.424 2.032.157 3.065-.482-.132-.964-.265-1.446-.398.266-.95.884-1.568 1.832-1.84.929-.267 1.326 1.18.398 1.446-.441.086-.703.35-.784.792-.261.929-1.688.538-1.446-.398.082-.319.519-1.327.228-1.607-.474-.457-.108-1.274.531-1.28-.319.003-1.14-1.394-1.464-1.661-.592-.488-1.286-.776-2.027-.952-.945-.226-.54-1.633.399-1.446.977.193 1.954.386 2.93.58.946.187.545 1.633-.399 1.446" fill="#906a47"/><path d="M229.8193 39.1025c-.121.698-.347 1.346-.673 1.974-.176.339-.695.17-.698-.189-.009-.822-.017-1.643-.025-2.466h.75c-.034.459.049 1.826-.832 1.409-.7-.332-1.141-1.54-1.355-2.217-.095-.299.28-.612.551-.424.052.036.103.072.154.108.394.274.02.924-.378.648l-.155-.109c.183-.14.367-.282.551-.423.111.352.248.686.434 1.007.072.125.15.248.234.367.083.115.304.305.216.341-.086.087-.174.174-.261.262.086-.302.068-.657.091-.969.035-.475.746-.488.75 0 .008.823.016 1.644.025 2.466-.233-.063-.467-.127-.699-.189.297-.573.487-1.161.596-1.795.082-.475.805-.274.724.199M244.1836 44.96c.334 1.183.668 2.364 1.002 3.547.132.467-.576.656-.724.199-.483-1.507-1.053-3.013-1.344-4.57-.087-.469.589-.671.723-.2l.897 3.167c-.245.033-.492.066-.737.099-.064-.799-.774-1.507-.898-2.339-.119-.808.01-1.618.171-2.41l.723.199c-.338 1.202-.631 2.371-.562 3.631h-.75c-.004-.991.003-1.981.022-2.971.009-.483.759-.484.75 0-.019.99-.026 1.98-.022 2.971.002.486-.724.479-.75 0-.073-1.324.232-2.563.589-3.83.132-.468.819-.27.723.199-.213 1.047-.327 2.104.171 3.092.268.532.535.852.583 1.458.036.43-.624.497-.736.1-.299-1.056-.598-2.112-.897-3.166.241-.068.482-.134.723-.2.29 1.558.861 3.064 1.345 4.571l-.724.199c-.334-1.183-.667-2.364-1.001-3.547-.131-.465.592-.664.723-.199" fill="#f6d756"/><path d="M244.2129 45.1445c.424 1.312 1.201 2.404 2.314 3.222-.151.196-.303.392-.455.589-1.188-1.492-2.346-3.006-2.842-4.878-.107-.401.487-.678.685-.289.645 1.26 1.368 2.97 2.613 3.718l-.454.589c-.753-.89-1.682-1.61-2.211-2.671-.184-.371.274-.764.589-.454.394.387.657.867 1.037 1.264.413.431 1.001.591 1.483.931.51.359 1.333.986.878 1.682-1.003 1.534-3.494-1.138-3.946-2.007.216-.126.432-.252.648-.379.391.77.784 1.539 1.177 2.309.218.43-.429.81-.648.379-.392-.77-.785-1.539-1.177-2.309-.218-.428.424-.807.648-.379.319.616.746 1.142 1.331 1.524.148.097.729.499.922.438.606-.191-.485-.795-.57-.845-.412-.243-.831-.381-1.18-.72-.425-.412-.709-.942-1.133-1.358l.589-.454c.498.999 1.384 1.679 2.094 2.519.261.31-.069.821-.455.589-1.408-.846-2.159-2.573-2.882-3.989.228-.095.457-.192.685-.289.463 1.748 1.54 3.157 2.65 4.548.24.3-.079.864-.454.589-1.276-.936-2.172-2.162-2.66-3.67-.148-.46.576-.657.724-.199" fill="#f6d756"/><path d="M242.0205 46.292c.056.229.11.459.166.687.05.124-.012.276-.097.366-.226.239-.339.656-.494.927-.45.79-1.248 1.339.741.988 1.019-.18.558-.345 1.504-.111.087.023 1.304.719 1.399.59.748-1.018-3.115-.228-2.601-.383-.57.171-1.067.704-1.68.555-.172-.042-.258-.199-.275-.362-.027-.278.108-.271.147-.508.145-.196.316-.369.512-.52.455-.857.517-1.694.183-2.511-.051-1.228-.201-2.386.109-3.594.319-1.239 2.01-3.903 3.617-2.802.126.086.236.265.173.424-.127.32-.262.437-.524.737-.905 1.038-1.736 1.81-1.665 3.399h-.75c.09-1.471.26-2.949 1.333-4.028.341-.342.872.188.53.531-.922.927-1.039 2.286-1.113 3.497-.029.48-.729.484-.75 0-.028-.644-.116-1.501.149-2.12.289-.673 1.626-1.239 1.736-1.809-.812.211-1.342.683-1.593 1.414-.262.393-.433.822-.511 1.287-.12.544-.113 1.174-.093 1.732.038 1.027.677 2.043.49 3.051-.084.448-.418 1.029-.79 1.322-.851.672-.591.033-.03-.203.391-.165.801-.277 1.217-.352.981-.176 2.688-.347 3.233.743.289.575.255 1.14-.36 1.358-.39.137-1.093-.224-1.434-.295-1.123-.235-2.02.093-3.061.164-.83.057-1.384-.153-1.318-1.018.088-1.181 1.234-1.882 1.15-3.156-.032-.481.719-.479.75 0" fill="#f6d756"/><path d="M243.9219 41.9453c-.353.918-.992 1.729-.908 2.747.071.869.319 1.679.331 2.564.005.363-.524.521-.698.188-.525-.996-.506-2.353-.579-3.449-.033-.483.717-.481.75 0 .063.958.023 2.209.476 3.071-.233.063-.466.126-.699.19-.014-1.016-.441-2.041-.359-3.043.075-.899.648-1.647.962-2.467.172-.447.897-.253.724.199" fill="#f6d756"/><path d="M242.2354 42.6914c.029-.107.058-.215.086-.322.125-.466.849-.268.724.2-.029.106-.058.214-.086.321-.124.467-.848.269-.724-.199" fill="#f6d756"/><path d="M242.917 40.9814c.079-.092.158-.183.238-.274.237-.273.768.016.627.364-.801 1.972-.624 3.97-.221 6.012.056.286-.263.631-.551.422-.716-.518-.933-2.126-1.057-2.934-.195-1.282.239-2.694.925-3.775.225-.354.796-.13.685.289-.089.339-.119.387-.364.636-.269.274-.713-.008-.627-.365.014-.164.029-.329.042-.493.142.056.282.114.424.172-.894.165-.409 1.846-.281 2.322-.209-.056-.418-.11-.627-.166.082-.078.164-.157.245-.235.348-.335.879.194.53.53-.081.078-.163.157-.245.235-.201.195-.552.112-.626-.165-.246-.911-.605-2.985.805-3.244.158-.029.344.017.424.172.18.351.122.699.033 1.072-.209-.122-.418-.244-.627-.365.057-.102.114-.203.171-.305.228.096.457.193.685.289-.466.738-.774 1.597-.834 2.473-.043.635.081 1.171.247 1.787.087.324.212 1.251.451 1.423-.184.142-.368.282-.551.424-.427-2.16-.626-4.324.221-6.41.209.122.418.243.627.365-.08.092-.16.182-.239.274-.317.366-.845-.167-.53-.53" fill="#f6d756"/><path d="M243.5508 43.5723c-.078.741-.105 1.405.073 2.149.168.699.719 1.315.875 1.969.102.426.217.388.022.831-.053.122-.202.18-.324.187-.608.032-1.209-.016-1.433-.407-.229.03-.457.059-.686.089.706-2.095 3.051.628 3.973.994.443.177.282.82-.199.724-.801-.16-1.481-.358-2.169-.785-.346-.215-.125-.838.289-.686 1.282.471 2.477.866 3.855.938-.088.214-.176.427-.264.641-.915-.826-5.003-1.235-4.604-3.053.034-.156.204-.28.362-.276.653.018 1.251.449 1.819.736 1.385.699 2.648 1.304 4.237 1.273-.033.245-.066.49-.099.737-1.251-.279-2.326-.712-3.422-1.376-.328-.201-.176-.678.189-.7 1.383-.082 3.089.501 4.311 1.151.381.202.117.791-.289.685-1.081-.283-2.807-.318-3.48.876-.074-.183-.149-.367-.223-.551 1.217.261 3.028-.201 4.15-.712.063.232.127.465.189.698-.435-.026-.872-.02-1.306.018-.098-.261-.017-.41.243-.446.15-.438 1.411-1.066 1.754-1.756l.512.513c-.692.394-1.384.788-2.076 1.183-.096-.229-.193-.457-.289-.686 1.27-.464 1.568-1.281 1.921-2.378.106-.328.647-.384.724 0 .314 1.57-.138 2.31-1.07 3.562l-.512-.513c.03-.023.061-.044.093-.066.179-.44.906-.247.722.201-.116.284-.16.371-.437.512-.301.154-.755-.187-.513-.513.696-.937 1.29-1.504.993-2.984h.724c-.461 1.429-1.004 2.376-2.446 2.902-.404.147-.652-.479-.289-.686.693-.393 1.385-.788 2.077-1.182.34-.193.675.186.513.513-.6 1.209-1.492 2.046-2.842 2.395-.581.149-1.481.226-1.673-.493-.045-.169.032-.331.171-.424.79-.528 2.122-.442 3.006-.422.345.008.546.536.19.699-1.326.605-3.277 1.1-4.73.789-.241-.052-.337-.35-.223-.551.834-1.479 2.854-1.606 4.326-1.221-.096.228-.193.457-.288.685-1.018-.541-2.746-1.118-3.933-1.048.064-.233.127-.465.19-.699 1.023.621 2.077 1.042 3.242 1.301.422.094.315.728-.1.737-1.614.031-3.924-.574-5.174-1.657-.615-.533.591.197.708.252.444.204.878.422 1.327.616.614.265 1.354.376 1.855.828.236.213.055.657-.266.64-1.433-.075-2.709-.471-4.054-.965.096-.228.192-.457.289-.685.687.426 1.231.558 1.989.709l-.199.724c-.521-.207-.62-.267-1.1-.569-.24-.152-1.708-1.669-1.95-.949-.101.296-.519.381-.686.089-.512-.895.768-.879 1.288-.79.721.124.671.341.146-.299-.209-.255-.399-.836-.495-1.124-.316-.948-.358-1.906-.254-2.894.051-.475.802-.479.75 0" fill="#f6d756"/><path d="M246.4639 47.04c1.299.091 2.533-.261 3.56-1.075.374-.298.908.229.53.53-1.178.935-2.583 1.4-4.09 1.295-.479-.034-.482-.784 0-.75" fill="#f6d756"/><path d="M246.4668 46.6689c.588.409 1.24.801 1.92 1.035.454.156.259.882-.199.724-.743-.257-1.456-.664-2.1-1.112-.393-.273-.019-.923.379-.647M242.1055 48.9355c.035-1.166.29-2.267.751-3.336.19-.442.837-.06.647.378-.406.942-.617 1.933-.648 2.958-.015.481-.765.483-.75 0" fill="#f6d756"/><path d="M242.5459 47.9961c.074-.46.16-.916.256-1.371.1-.473.824-.273.723.199-.096.455-.181.912-.255 1.371-.077.476-.8.274-.724-.199M244.0098 45.8213c-.559-1.579-.567-2.889-.138-4.504.123-.466.847-.268.723.199-.396 1.489-.373 2.659.139 4.105.161.456-.563.652-.724.2" fill="#f6d756"/><path d="M244.3574 45.6289c-.503-1.552-.481-3.164.069-4.699.162-.45.887-.256.724.2-.511 1.422-.536 2.862-.069 4.299.149.461-.576.658-.724.2" fill="#f6d756"/><path d="M244.2607 41.8906c-.054-.673.449-1.405.831-1.924.406-.553 1.01-.895 1.564-1.284.396-.277.771.372.378.647-.429.302-.942.578-1.272.99-.313.39-.792 1.056-.751 1.571.038.481-.712.479-.75 0" fill="#f6d756"/><path d="M244.6475 39.2793c.538-.104.993-.437 1.537-.484.482-.04.479.71 0 .75-.231.02-.448.176-.659.261-.222.09-.444.151-.679.196-.471.09-.674-.632-.199-.723" fill="#f6d756"/><path d="M244.5439 41.3936c.234-.316.465-.637.705-.949.225-.293.524-.55.701-.87.236-.422.883-.044.648.379-.172.31-.437.541-.658.815-.261.324-.5.669-.749 1.004-.284.384-.935.01-.647-.379M226.5723 34.8115c.224.588.599 1.066 1.126 1.437.206-.137.426-.218.662-.242.296.134.534-.003.791.144.32.182.444.843.678.974 1.898 1.065 2.133-1.921 2.013-2.998-.03-.259.261-.404.474-.361.701.141.885 1.58.899 2.137.033 1.302-.893 2.593-1.877 3.325-.167.124-.414.021-.513-.135-.559-.882.596-2.91.868-3.778.122-.389.759-.34.736.1-.082 1.614-.923 2.253-2.403 2.672l-.199-.723c.733-.151 2.423-.907 2.757.214.044.15-.028.351-.173.423-1.168.582-1.065 1.513-2.437 1.248-1.3-.25-2.753-1.139-3.574-2.171-.77-.968-1.285-2.461-.804-3.67.425-1.069 1.119-.98 2.267-1.003v.75c-.61-.11-1.2-.026-1.77.253-.063-.234-.126-.466-.189-.7.676.025.632.021 1.294.159.344.071.33.513.089.685-.86.614-.366 3.497-.055 4.224.191.443-.356.769-.647.378-.458-.614-.744-1.161-1.011-1.869-.129-.341.396-.656.627-.365.975 1.228 1.804 2.306 1.523 3.905-.066.384-.622.328-.722 0-.201-.653-.289-1.217-.31-1.892-.014-.413.661-.521.736-.1.112.625.258 1.161.482 1.754h-.724c.148-.816.053-.567.497-1.268.161-.255.617-.241.686.09.175.842.324 1.678.452 2.53l-.627-.165c.505-.605 1.743-1.958 2.648-1.408.143.087.214.26.172.423-.173.664-.504 1.229-.597 1.92l-.461-.46c1.292-.272 2.547.216 3.839-.13 2.765-.742 3.546-3.294 2.827-5.852.246-.033.491-.066.736-.1.099 1.657-.019 2.074-1.559 2.842-1.668.832-2.811 1.199-4.675.782.14-.184.282-.368.423-.551.204.342.338.544.148.906-.059.111-.198.191-.324.186-1.464-.068-3.16-1.229-4.31-2.032-.321-.224-.135-.85.289-.685 1.141.444 2.244.936 3.336 1.493-.126.216-.253.432-.379.647-.714-.529-1.521-.822-2.091-1.522-.246-.301.079-.859.454-.589 1.059.759 1.748 1.562 2.294 2.75.145.314-.092.601-.423.551-.291-.019-.582-.037-.872-.056-.391.003-.487-.498-.19-.698.985-.666 1.596-1.252 2.295-2.215.228-.312.854-.139.686.289-.498 1.266-.995 2.531-1.493 3.797-.209-.121-.418-.243-.627-.364.489-.557.986-1.077 1.521-1.591.293-.282.855.101.589.454-.394.522-.704 1.015-1.004 1.595l-.589-.454c.527-.495.983-1.053 1.364-1.671.109.188.216.376.325.564-.61-.068-.652-.071-1.245-.222-.408-.105-.326-.746.099-.738 1.075.021 2.288-.511 3.319-.204.33.098.346.501.09.686l-2.918 2.097c-.35.252-.753-.296-.455-.589.816-.801 1.584-1.478 2.624-1.967l.378.647c-.502.226-2.135.962-2.137 1.666-.187-.107-.375-.216-.563-.323 1.214-.722 2.301-1.557 3.309-2.543l.53.53c-.991.907-1.948 1.842-2.877 2.813-.151-.197-.304-.393-.455-.59 1.489-.937 2.8-2.026 3.997-3.315l.53.531c-1.168 1.178-2.282 2.396-3.35 3.666l-.531-.531c1.49-1.217 2.853-2.417 3.86-4.084.196.151.393.302.59.454-.953 1.22-1.972 2.413-2.773 3.739-.171-.171-.342-.342-.513-.514.62-.429 3.121-2.011 2.367-3.209.228-.03.457-.059.685-.09-.381 1.016-.833 1.589-1.743 2.18-.406.264-.783-.386-.379-.647.466-.578.933-1.155 1.399-1.732.112-.299.504-.377.685-.09 1.113 1.769-1.383 3.368-2.635 4.237-.315.217-.699-.205-.513-.514.833-1.381 1.899-2.62 2.888-3.891.265-.339.806.097.59.454-1.031 1.708-2.444 2.984-3.977 4.238-.373.304-.844-.158-.531-.531 1.069-1.269 2.182-2.487 3.351-3.666.342-.343.858.178.53.531-1.248 1.342-2.598 2.457-4.148 3.432-.367.231-.744-.286-.454-.589.929-.97 1.885-1.905 2.877-2.812.355-.324.878.19.53.53-1.067 1.044-2.178 1.898-3.461 2.66-.244.146-.565-.041-.565-.324.003-1.138 1.643-1.923 2.509-2.313.435-.197.818.44.378.647-.97.456-1.716 1.108-2.471 1.851l-.455-.589 2.918-2.098c.031.229.06.457.09.686-.687-.205-2.376.245-3.12.23.033-.245.067-.491.101-.736.347.065.696.131 1.045.196.256.029.5.305.323.565-.451.665-.918 1.242-1.482 1.822-.305.313-.78-.084-.588-.455.299-.58.61-1.073 1.002-1.595.197.151.394.303.59.455-.535.514-1.032 1.034-1.521 1.591-.238.271-.764-.016-.627-.365.498-1.266.996-2.531 1.493-3.797.229.097.457.192.686.289-.73 1.005-1.536 1.788-2.565 2.483-.062-.232-.126-.465-.188-.699.508-.003.567.008 1.071.083-.142.184-.282.367-.424.551-.48-1.044-1.073-1.8-2.024-2.482l.454-.588c.534.655 1.281.917 1.94 1.405.382.282.061.871-.379.647-1.03-.525-2.077-.997-3.156-1.418.097-.228.192-.457.289-.685.771.539 3.032 1.249 3.459 1.967-.174-.293.112-.621.424-.551 1.397.312 2.591.11 3.824-.587 1.194-.675 1.539-1.003 1.461-2.314-.025-.428.625-.5.737-.099.558 1.984.804 3.834-.835 5.348-.699.646-1.596 1.175-2.516 1.426-1.287.35-2.549-.141-3.839.129-.305.065-.5-.175-.462-.461.192-1.421.422-1.871-.969-.206-.17.203-.586.106-.627-.166-.127-.85-.276-1.687-.452-2.53.229.03.457.059.686.09-.141.363-.28.726-.421 1.089-.072.4-.607.309-.724 0-.222-.594-.37-1.129-.481-1.754.246-.033.491-.067.737-.1-.019.587.074 1.151.282 1.692h-.722c.013-1.261-.43-2.319-1.331-3.174.209-.122.418-.243.627-.366.196.632.507 1.196.934 1.691l-.647.378c-.624-1.453-1.16-4.191.324-5.25.029.228.059.457.09.685-.365-.043-.731-.087-1.095-.131-.343-.011-.548-.532-.189-.698.776-.359 1.253-.409 2.148-.355.479.029.486.74 0 .75-3.621.074-.302 5.16 1.996 5.266.567.027 1.073-.134 1.468-.61.566-.683-.959.206-1.301.276-.469.097-.668-.59-.199-.723.95-.163 1.568-.814 1.852-1.949.247.033.492.066.737.099-.162.519-.325 1.037-.488 1.556-.113.36-.969 2.5-.223.966.328-.673.644-1.337.663-2.083.002-.109-.098-1.433-.251-1.464.158-.12.316-.241.475-.362.15 1.35-.422 4.56-2.498 4.116-.346-.075-.357-.229-.593-.321-.331-.581-.866-.897-1.604-.95-.114.047-.232.076-.355.088-.782-.422-1.207-1.059-1.617-1.869-.218-.43.429-.81.647-.379" fill="#f6d756"/><path d="M236.04 38.457c-.455.112-.791.424-1.28.423-.483-.002-.484-.752 0-.75.378.001.715-.306 1.081-.397.469-.115.668.608.199.724" fill="#f6d756"/><path d="M239.3311 49.4414c.237-.952.413-1.897.833-2.789.205-.436.852-.056.647.379-.117.248-.135.49-.218.743-.065.195-.213.359-.268.555-.117.422-.164.882-.27 1.311-.117.468-.84.27-.724-.199" fill="#f5f1de"/><path d="M239.2959 47.4844c.053-.426.195-1.357.101-1.64-.098-.292.287-.621.551-.423.631.473 1.458.81 1.369 1.717-.119 1.206-.916 2.392-1.081 3.608-.12-.158-.24-.317-.361-.475.569.032 1.083.022 1.65-.037-.033.246-.066.491-.099.736-.363-.14-.704-.245-1.084-.332-.398-.091-.312-.595 0-.722.93-.379 1.985-.774 2.56.274.143.26-.039.548-.324.565-.489.029-.48.022-.91-.213-.26-.142-.238-.639.09-.685.851-.121 1.709-.246 1.636.831-.188-.107-.376-.216-.565-.323.553-.337 1.074-.499 1.718-.56.35-.032.46.419.266.641-.164.199-.328.398-.492.599-.108-.189-.215-.376-.324-.565.503-.052.889-.223 1.39-.2.492.022.472.698 0 .75-.491.055-.947.282-1.429.324-.407.035-.957-.099-1.389-.133-1.275-.101-2.502.089-3.767.035-.229-.009-.444-.234-.361-.474.398-1.164.871-2.073.726-3.352.188.108.376.216.565.324-.411.189-1.01.485-1.277.871-.141-.184-.282-.368-.424-.551.405-.089.809-.179 1.213-.268.324-.072.578.255.424.551-.185.353-.375.651-.616.968-.196-.152-.393-.303-.589-.455.146-.197.309-.38.486-.549.287-.299.847.104.589.454-.308.418-.536.802-.757 1.272l-.512-.512c.123-.065.247-.129.371-.194.272-.142.529.041.564.324.032.269.478.371.677.721.089.158.049.323-.059.454l-.093.115c-.241.293-.737-.023-.627-.366.137-.429.158-.477.367-.876.224-.428.872-.049.647.378-.096.233-.194.465-.291.698-.209-.121-.418-.243-.627-.365-.502.613-.725-.602-.744-.759.188.108.376.215.565.324l-.372.193c-.347.181-.67-.177-.513-.512.221-.472.448-.855.757-1.274.196.151.392.303.589.455-.178.169-.34.353-.487.55-.265.326-.847-.115-.589-.455.242-.316.432-.615.617-.968.14.184.282.367.422.551-.404.09-.808.179-1.212.268-.294.065-.622-.264-.423-.551.361-.523.975-.876 1.545-1.14.274-.127.531.029.564.324.161 1.421-.304 2.238-.754 3.551-.12-.158-.24-.316-.361-.475 1.342.058 2.648-.125 4.004-.03.919.065 1.677-.096 2.581-.196v.75c-.467-.022-.926.152-1.39.2-.267.027-.488-.346-.323-.564.222-.294.365-.474.608-.75.088.213.177.426.265.639-.493.015-.939.167-1.339.457-.231.141-.584-.038-.564-.324l-.687-.108c.03-.229.06-.457.09-.686l.531.111c-.107.188-.216.375-.323.564-.331-.603-1.325-.089-1.713.069v-.722c.379.086.72.19 1.083.332.4.155.33.692-.1.736-.567.059-1.081.069-1.65.037-.267-.016-.395-.226-.361-.474.208-1.535 1.648-3.285.055-4.478.184-.142.368-.282.551-.424.236.703.017 1.109-.074 1.839-.06.473-.811.479-.75 0" fill="#f5f1de"/><path d="M243.3135 50.8242c-.598.477-1.226.886-1.912 1.225-.097-.229-.192-.457-.289-.686.366-.098.737-.134 1.108-.207.453-.089.739-.281 1.123-.51.436-.259.905-.283 1.277.086h-.531c.146-.15.292-.302.438-.452.336-.348.866.184.53.53-.145.151-.292.302-.437.452-.142.147-.389.142-.531 0-.153-.152-1.127.483-1.343.543-.47.134-.963.156-1.435.282-.398.106-.68-.492-.289-.686.627-.309 1.213-.671 1.761-1.107.373-.299.907.228.53.53M226.7471 38.7754c.5.871.732 1.771.707 2.776-.011.439-.594.49-.736.1-.266-.721-.025-1.339.571-1.793.233-.179.564.065.563.324-.001.316-.136 1.171.052 1.451.267.396.369-.298.507-.48.13-.173.271-.343.461-.454.071-.041.433-.118.489-.197.228-.322.837-.142.686.288-.19.536-.378 1.071-.567 1.606-.154-.153-.307-.308-.462-.461.327-.099.652-.198.977-.297.273-.083.54.191.462.461-.048.164-.096.328-.144.493-.183-.141-.367-.283-.55-.423.44-.187.861-.322 1.335-.4v.724c-.587-.083-1.361.257-1.913.034-.087-.036-.144-.116-.224-.153-.282-.132-.61-.31-.921-.405-.58-.174-.814-.521-.657-1.191.086-.366.628-.348.723 0 .221.802.839 2.024.323 2.803-.197-.152-.393-.303-.589-.455.492-.442 1.014-.726 1.658-.88.408-.097.663.466.289.685-.382.225-.979.546-1.421.262-.295-.19-.406-.629-.171-.912.645-.775 1.953-.142 2.033.719-.158-.121-.316-.242-.474-.362.339-.067.624-.227.857-.482.088.213.177.427.265.64-.781.001-2.234.337-2.84-.329-.366-.401-.213-.83-.824-1.1-.371-.164-.641-.082-.92-.429-.296-.367.199-.893.53-.53.657.721.126 1.602-.81 1.443.158-.121.316-.241.474-.362.021-.374.912.23.982.316.341.421.332.831 1.016.59.456-.16.653.564.2.724-.856.301-1.088.372-1.607-.372-.024-.066-.05-.131-.075-.196-.123-.316-.326-.43-.609-.341-.114-.045-.252-.041-.363-.113-.231-.151-.307-.343-.294-.608.015-.261.228-.403.475-.361.027-.064.055-.126.081-.19l.53-.53c.223.275.71.214 1.003.375.225.124.354.285.479.509.196.349.152.649.619.758.57.133 1.361-.003 1.953-.004.317-.001.505.416.266.64-.358.334-.717.54-1.189.675-.252.072-.452-.125-.475-.361-.944-.049-.967-.287-.07-.716.097.228.193.457.289.685-.525.125-.925.327-1.327.687-.301.271-.836-.081-.589-.454.311-.467-.267-1.75-.398-2.225h.723c-.081.346.448.202.66.273.252.084.36.304.572.397.534.235 1.321.032 1.959.122.362.051.354.665 0 .724-.414.068-.761.156-1.155.323-.282.119-.652-.079-.551-.424.048-.164.094-.328.142-.492.155.153.308.308.462.461-.326.1-.651.198-.976.297-.262.079-.557-.191-.462-.461.189-.535.378-1.071.566-1.607.229.097.457.194.686.289-.146.206-.19.273-.381.393-.177.016-.344.074-.498.176-.165.221-.3.46-.403.716-.151.271-.3.624-.671.629-1.114.017-.955-1.993-.954-2.611.189.108.377.216.565.323-.321.215-.398.531-.227.947-.245.033-.491.066-.736.099.022-.875-.166-1.634-.604-2.397-.241-.42.407-.798.647-.379" fill="#f5f1de"/><path d="M70.9536 223.8081c-.06-.003-.119.002-.178.001l-.113-2.236-3.515-3.307-7.029-.27-7.909-5.399-.073-3.577-2.93-.067s-.732-2.43-.732-2.16-2.709 3.644-2.709 3.644-5.053-1.687-5.492-1.957c-.44-.27-9.593-.607-9.593-.607l-2.929-3.914.073-3.847 4.687-.135 6.956 2.295-11.789-6.006 1.903-7.289s2.417.068 2.71.068c.293 0 7.176 6.006 7.176 6.006l-13.4-14.172.951-.742s1.539-.337 2.198-.405c.658-.068 0-1.147 0-1.147l2.123-.068s1.538-2.631 1.977-2.631c.44 0 4.883 1.395 4.883 1.395l3.789 2.884 7.743-2.884 7.085 1.518 2.801 7.136 2.636-1.67 7.249 3.037 6.919 28.089.596 7.227c-1.883.731-4.121 1.291-6.064 1.19z" fill="none" stroke="#292929" stroke-width=".5" stroke-miterlimit="10"/><path d="M103.918 110.1377l2.096-1.118 1.258 13.414.698-8.942h.978l.839-2.515h1.117l3.493-7.267 4.053-4.051h1.117l-1.397 2.654 1.397-.419-5.309 9.152 7.685-7.196-4.052 8.804-2.934 2.933 1.257.839-4.751 8.942-.279 1.817 1.746-1.258-.908 2.236 1.816 2.096.839-2.655 1.677 1.677 3.074-2.934.838.838-1.118 1.816.559 1.258-.559 1.398h1.118l1.677-1.119v1.119l.978 1.537h1.816v.838l2.236-1.257.978.139-.768 1.118-.07 1.257.489 1.188h-1.118l-.768 1.328-3.633-.699 12.366 8.175-5.729-2.166 15.23 9.361 4.681.35-2.235.838-2.655 1.677-5.799-3.982-1.956-.21-10.759-7.965-.07-1.398-11.248-9.292-.909-.139-1.048-1.048.42 1.887-1.258-.56-2.376-8.663-.558 1.816-.908.769 2.444 6.288 3.354 4.332 1.118-.768 11.598 10.06.488 1.327 10.55 8.174-19.143-12.994-.419-1.468-9.99-8.803-.42 1.398-.978.279-.838-4.401.279-1.327.769-1.328-2.166-17.187z" fill="#f6b732"/><path d="M118.5474 123.667l2.207-4.583 14.088-20.029h-2.546l2.546-2.207 2.716-1.358 1.98-.736s1.641.113 1.867.283c.227.17-.962 2.32-.962 2.32l.991-.226-1.443 2.376-5.658 7.355-2.716 1.981-13.07 14.824zM131.4048 125.3652v-2.556l12.438-11.33-5.112 8.093 15.505-12.097 5.196-1.448-12.182 10.223 8.093-2.215-23.938 11.33z" fill="#f6b732"/></g><g clip-path="url(#b)" transform="matrix(1.25 0 0 -1.25 0 450)"><path d="M208.9131 59.6729c-1.036-1.26-1.63-2.787-1.49-4.437.129-1.512 1.92-2.003 2.796-.757.632.9 1.427 1.704 2.324 2.343.659.469.974 1.308.538 2.052-.381.652-1.389 1.011-2.053.538-1.34-.955-2.453-2.072-3.4-3.42.931-.252 1.863-.505 2.795-.756-.071.828.068 1.655.611 2.316.514.626.612 1.51 0 2.121-.53.53-1.604.629-2.121 0" fill="#292929"/><path d="M209.3828 58.2754c-.392-.62-.783-1.239-1.175-1.858-.45-.712.605-1.548 1.178-.91.979 1.091 2.091 2.002 3.356 2.742.833.486.079 1.783-.756 1.295-1.37-.799-2.602-1.796-3.661-2.976l1.179-.909c.391.62.782 1.239 1.174 1.858.517.819-.78 1.572-1.295.758" fill="#c79f73"/><path d="M208.8184 63.8076c-.119-3.375.983-6.987-.59-10.158-.639-1.289 1.269-2.427 1.943-1.136.624 1.194 1.041 2.348 1.279 3.68.201 1.123-.998 1.842-1.88 1.094-1.112-.942-1.829-2.045-2.546-3.311l2.057-.867c.495 1.571 1.1 3.069 1.841 4.539.556 1.103-.835 2.315-1.767 1.363-2.215-2.264-4.529-4.409-6.954-6.446l1.591-1.591c1.66 1.613 3.321 3.228 4.981 4.841 1.059 1.028-.493 2.494-1.591 1.591-2.084-1.716-4.304-3.444-7.177-2.731v-2.17c1.968.545 3.947 1.038 5.941 1.484-.365.627-.73 1.253-1.095 1.88-1.503-1.711-5.891-.833-7.92-.818.324-.564.649-1.129.972-1.692.608.873 2.942.609 3.922.723 1.364.16 2.718.382 4.056.687 1.723.393 3.361.771 3.929 2.603.406 1.309-1.341 1.819-2.055.867-.684-.99-1.624-1.541-2.819-1.658.266-.639.53-1.28.796-1.92 3.002 2.871 6.627 5.6 5.721 10.226-.189.962-1.604 1.075-2.056.269-.304-.543-.352-.88-.186-1.476.388-1.393 2.56-.801 2.17.599-.014-.086-.028-.173-.042-.259-.684.09-1.37.179-2.055.268.7-3.572-2.908-5.899-5.143-8.036-.644-.616-.203-2.051.795-1.921 2.068.273 3.507 1.103 4.761 2.772l-2.057.867c-.543-1.753-7.172-1.727-8.489-1.86-1.387-.141-2.381-.452-3.19-1.616-.503-.721.171-1.687.97-1.693 2.827-.021 7.369-.962 9.511 1.477.744.846.029 2.131-1.095 1.881-1.994-.446-3.971-.94-5.941-1.484-1.051-.291-1.091-1.899 0-2.17 3.746-.929 6.582 1.016 9.367 3.31l-1.591 1.591c-1.66-1.614-3.321-3.227-4.981-4.841-1.055-1.025.498-2.508 1.591-1.591 2.425 2.037 4.739 4.183 6.955 6.446-.589.454-1.179.909-1.768 1.364-.831-1.649-1.513-3.316-2.068-5.077-.385-1.22 1.43-1.972 2.056-.867.614 1.084 1.232 2.041 2.194 2.857-.627.364-1.254.729-1.88 1.094-.213-1.189-.476-2.039-1.053-3.142.648-.379 1.295-.757 1.943-1.136 1.818 3.665.759 7.387.897 11.294.051 1.448-2.199 1.446-2.25 0" fill="#c79f73"/><path d="M208.6348 62.1328c.07-.523.056-1.062.027-1.588-.075-1.433 2.171-2.117 2.796-.757.368.802.404 1.539.449 2.408.05.936.224 1.841.108 2.78-.092.741-.5 1.378-1.301 1.473-.657.079-1.545-.327-1.645-1.075-.103-.753-.172-1.478-.148-2.239h3c-.053.535-.105 1.071-.158 1.607-.188 1.895-2.916 1.962-3 0-.026-.601-.032-1.202-.021-1.803.041-1.928 3.041-1.935 3 0-.011.601-.005 1.202.021 1.803h-3c.053-.536.105-1.072.158-1.607.186-1.883 3.065-1.964 3 0-.015.477-.024.967.04 1.442-.982.133-1.965.266-2.946.399.089-.719.018-1.405-.053-2.123-.039-.397.075-1.18-.095-1.551.932-.252 1.864-.504 2.795-.757.043.813-.025 1.581-.134 2.386-.109.804-1.14 1.241-1.845 1.048-.867-.239-1.157-1.039-1.048-1.846" fill="#c79f73"/><path d="M48.9277 116.7998l18.49 11.014-11.514-9.824 8.306 1.996-12.174-6.332 1.883-25.154-4.334 11.501-1.365-5.116.666 21.279.042.636zM68.3115 58.2627l-.447-.304-5.775-3.925-1.798-6.318h-.972l-6.902-16.623.389-1.895-1.264-3.161.875-1.944 15.894 34.17zM50.6851 50.9082l-1.607-2.465-.537-5.466-.535 3.161-4.984-6.001-.643-1.983h-1.929l-8.467-12.164v-2.305l-2.411-3.482v-1.126l15.862 20.685-3.859-11.896 6.377 11.789-.375-4.662 3.965 11.843-.857 4.072z" fill="#f6b732"/><path d="M72.9116 233.0259l.771-.509.92-.148" fill="none" stroke="#f6b732" stroke-miterlimit="10"/></g></svg>